<svg width="396" height="404" viewBox="0 0 396 404" fill="none" xmlns="http://www.w3.org/2000/svg">
<rect x="0.5" y="0.5" width="395" height="315" rx="19.5" stroke="#D4C5FD"/>
<rect x="4" y="4" width="388" height="308" rx="16" fill="white"/>
<path d="M137.746 42V41.034H140.756V33.544L137.788 34.342V33.516L141.274 32.2H141.89V41.034H144.382V42H137.746ZM152.858 42.168C151.999 42.168 151.304 41.9953 150.772 41.65C150.24 41.2953 149.848 40.8333 149.596 40.264C149.353 39.6853 149.232 39.06 149.232 38.388V32.2H150.408V38.402C150.408 39.354 150.636 40.0447 151.094 40.474C151.551 40.9033 152.148 41.118 152.886 41.118C153.623 41.118 154.216 40.9033 154.664 40.474C155.112 40.0447 155.336 39.354 155.336 38.402V32.2H156.512V38.388C156.512 39.1067 156.404 39.7087 156.19 40.194C155.975 40.6793 155.686 41.0667 155.322 41.356C154.967 41.6453 154.575 41.8553 154.146 41.986C153.716 42.1073 153.287 42.168 152.858 42.168ZM161.465 42.168C160.802 42.168 160.2 42.0467 159.659 41.804C159.127 41.5613 158.702 41.2113 158.385 40.754C158.077 40.2873 157.923 39.7227 157.923 39.06H159.155C159.155 39.7133 159.37 40.2313 159.799 40.614C160.228 40.9873 160.784 41.174 161.465 41.174C162.062 41.174 162.557 41.0293 162.949 40.74C163.35 40.4507 163.551 40.04 163.551 39.508C163.551 39.144 163.486 38.8547 163.355 38.64C163.234 38.416 163.047 38.234 162.795 38.094C162.543 37.9447 162.226 37.8047 161.843 37.674C161.46 37.5433 161.008 37.3893 160.485 37.212C160.018 37.044 159.617 36.8527 159.281 36.638C158.954 36.4233 158.702 36.162 158.525 35.854C158.348 35.5367 158.259 35.1587 158.259 34.72C158.25 34.1413 158.38 33.656 158.651 33.264C158.931 32.8627 159.304 32.5593 159.771 32.354C160.247 32.1393 160.77 32.032 161.339 32.032C161.918 32.032 162.436 32.1393 162.893 32.354C163.36 32.5593 163.733 32.8673 164.013 33.278C164.293 33.6793 164.438 34.1693 164.447 34.748H163.215C163.215 34.2533 163.038 33.8473 162.683 33.53C162.328 33.2033 161.866 33.04 161.297 33.04C160.793 33.0213 160.364 33.1473 160.009 33.418C159.654 33.6887 159.477 34.0853 159.477 34.608C159.477 34.9533 159.547 35.2287 159.687 35.434C159.836 35.63 160.088 35.8027 160.443 35.952C160.798 36.1013 161.288 36.2833 161.913 36.498C162.361 36.6473 162.762 36.806 163.117 36.974C163.472 37.1327 163.77 37.324 164.013 37.548C164.256 37.7627 164.442 38.024 164.573 38.332C164.704 38.6307 164.769 38.9993 164.769 39.438C164.769 40.026 164.615 40.5253 164.307 40.936C164.008 41.3373 163.607 41.6453 163.103 41.86C162.608 42.0653 162.062 42.168 161.465 42.168ZM166.277 42V32.2H169.287C170.444 32.2 171.392 32.4007 172.129 32.802C172.876 33.194 173.426 33.7587 173.781 34.496C174.145 35.224 174.327 36.1013 174.327 37.128C174.327 38.136 174.145 39.004 173.781 39.732C173.426 40.46 172.876 41.02 172.129 41.412C171.392 41.804 170.444 42 169.287 42H166.277ZM167.453 41.02H169.259C170.192 41.02 170.939 40.8707 171.499 40.572C172.068 40.264 172.479 39.8207 172.731 39.242C172.983 38.654 173.109 37.9493 173.109 37.128C173.109 35.7933 172.801 34.804 172.185 34.16C171.569 33.5067 170.594 33.18 169.259 33.18H167.453V41.02ZM179.788 36.974V35.966H185.374V36.974H179.788ZM179.788 39.886V38.878H185.374V39.886H179.788ZM191.4 42V41.034H194.41V33.544L191.442 34.342V33.516L194.928 32.2H195.544V41.034H198.036V42H191.4ZM198.416 43.666L199.228 40.572H200.446L199.228 43.666H198.416ZM205 42.168C204.375 42.168 203.81 42.056 203.306 41.832C202.812 41.5987 202.41 41.272 202.102 40.852C201.794 40.4227 201.603 39.9233 201.528 39.354H202.676C202.788 39.8953 203.05 40.334 203.46 40.67C203.871 40.9967 204.389 41.16 205.014 41.16C205.481 41.16 205.882 41.0527 206.218 40.838C206.554 40.6233 206.811 40.3293 206.988 39.956C207.175 39.5827 207.268 39.1627 207.268 38.696C207.268 37.968 207.063 37.38 206.652 36.932C206.242 36.484 205.71 36.26 205.056 36.26C204.515 36.26 204.053 36.3813 203.67 36.624C203.288 36.8667 203.008 37.184 202.83 37.576H201.71L202.55 32.2H207.688V33.222H203.46L202.886 36.204C203.11 35.9333 203.418 35.7093 203.81 35.532C204.212 35.3547 204.669 35.266 205.182 35.266C205.826 35.266 206.386 35.4153 206.862 35.714C207.348 36.0127 207.726 36.4187 207.996 36.932C208.127 37.1933 208.225 37.4687 208.29 37.758C208.365 38.0473 208.402 38.3553 208.402 38.682C208.402 39.3633 208.258 39.9653 207.968 40.488C207.688 41.0107 207.292 41.4213 206.778 41.72C206.274 42.0187 205.682 42.168 205 42.168ZM211.247 42L215.405 33.208H209.721V32.2H216.609V33.082L212.493 42H211.247ZM218.431 42V41.034H221.441V33.544L218.473 34.342V33.516L221.959 32.2H222.575V41.034H225.067V42H218.431ZM230.001 42V32.2H231.177L236.399 40.054V32.2H237.575V42H236.399L231.177 34.146V42H230.001ZM243.707 42.168C242.774 42.168 241.962 41.9533 241.271 41.524C240.59 41.0853 240.058 40.488 239.675 39.732C239.302 38.9667 239.115 38.094 239.115 37.114C239.115 36.1433 239.302 35.2753 239.675 34.51C240.049 33.7447 240.59 33.1427 241.299 32.704C242.009 32.256 242.867 32.032 243.875 32.032C244.977 32.032 245.891 32.298 246.619 32.83C247.357 33.362 247.833 34.0947 248.047 35.028H246.689C246.559 34.44 246.246 33.9733 245.751 33.628C245.266 33.2827 244.641 33.11 243.875 33.11C243.101 33.11 242.447 33.2873 241.915 33.642C241.383 33.9967 240.982 34.4773 240.711 35.084C240.45 35.6813 240.319 36.358 240.319 37.114C240.319 37.8793 240.455 38.5653 240.725 39.172C240.996 39.7787 241.388 40.2547 241.901 40.6C242.415 40.9453 243.031 41.118 243.749 41.118C244.795 41.118 245.583 40.8147 246.115 40.208C246.647 39.592 246.951 38.752 247.025 37.688H243.497V36.764H248.229V42H247.151L247.053 40.39C246.699 40.9593 246.265 41.398 245.751 41.706C245.238 42.014 244.557 42.168 243.707 42.168ZM249.929 42V32.2H251.105L256.327 40.054V32.2H257.503V42H256.327L251.105 34.146V42H249.929Z" fill="#242127"/>
<rect x="28.5" y="70.5" width="339" height="96" rx="23.5" fill="white"/>
<rect x="28.5" y="70.5" width="339" height="96" rx="23.5" stroke="#F8F5FF"/>
<path d="M51.472 102V98.276L48.28 92.2H49.61L52.06 97.156L54.51 92.2H55.826L52.648 98.276V102H51.472ZM58.9026 102.168C58.268 102.168 57.6846 102.028 57.1526 101.748C56.6206 101.459 56.196 101.043 55.8786 100.502C55.5613 99.9513 55.4026 99.2887 55.4026 98.514C55.4026 97.7767 55.5566 97.1373 55.8646 96.596C56.182 96.0547 56.6066 95.6347 57.1386 95.336C57.68 95.0373 58.2866 94.888 58.9586 94.888C59.6026 94.888 60.1906 95.028 60.7226 95.308C61.264 95.588 61.698 95.9987 62.0246 96.54C62.3513 97.0813 62.5146 97.7393 62.5146 98.514C62.5146 99.2233 62.3606 99.8533 62.0526 100.404C61.7446 100.955 61.3153 101.389 60.7646 101.706C60.2233 102.014 59.6026 102.168 58.9026 102.168ZM58.9026 101.146C59.36 101.146 59.7706 101.039 60.1346 100.824C60.4986 100.6 60.788 100.292 61.0026 99.9C61.2173 99.508 61.3246 99.046 61.3246 98.514C61.3246 98.01 61.2313 97.562 61.0446 97.17C60.858 96.778 60.5873 96.47 60.2326 96.246C59.878 96.022 59.4486 95.91 58.9446 95.91C58.4313 95.91 57.9973 96.0267 57.6426 96.26C57.2973 96.4933 57.036 96.806 56.8586 97.198C56.6813 97.59 56.5926 98.0287 56.5926 98.514C56.5926 99.13 56.7046 99.634 56.9286 100.026C57.1526 100.409 57.442 100.693 57.7966 100.88C58.1513 101.057 58.52 101.146 58.9026 101.146ZM66.5338 102.168C65.9925 102.168 65.5165 102.061 65.1058 101.846C64.7045 101.622 64.3918 101.286 64.1678 100.838C63.9438 100.381 63.8318 99.8067 63.8318 99.116V95.056H65.0078V98.99C65.0078 99.7087 65.1572 100.25 65.4558 100.614C65.7545 100.978 66.2025 101.16 66.7998 101.16C67.3972 101.16 67.8918 100.945 68.2838 100.516C68.6852 100.077 68.8858 99.4567 68.8858 98.654V95.056H70.0618V102H68.9978L68.9278 100.754C68.7038 101.193 68.3818 101.538 67.9618 101.79C67.5418 102.042 67.0658 102.168 66.5338 102.168ZM78.5746 102.168C77.912 102.168 77.31 102.047 76.7686 101.804C76.2366 101.561 75.812 101.211 75.4946 100.754C75.1866 100.287 75.0326 99.7227 75.0326 99.06H76.2646C76.2646 99.7133 76.4793 100.231 76.9086 100.614C77.338 100.987 77.8933 101.174 78.5746 101.174C79.172 101.174 79.6666 101.029 80.0586 100.74C80.46 100.451 80.6606 100.04 80.6606 99.508C80.6606 99.144 80.5953 98.8547 80.4646 98.64C80.3433 98.416 80.1566 98.234 79.9046 98.094C79.6526 97.9447 79.3353 97.8047 78.9526 97.674C78.57 97.5433 78.1173 97.3893 77.5946 97.212C77.128 97.044 76.7266 96.8527 76.3906 96.638C76.064 96.4233 75.812 96.162 75.6346 95.854C75.4573 95.5367 75.3686 95.1587 75.3686 94.72C75.3593 94.1413 75.49 93.656 75.7606 93.264C76.0406 92.8627 76.414 92.5593 76.8806 92.354C77.3566 92.1393 77.8793 92.032 78.4486 92.032C79.0273 92.032 79.5453 92.1393 80.0026 92.354C80.4693 92.5593 80.8426 92.8673 81.1226 93.278C81.4026 93.6793 81.5473 94.1693 81.5566 94.748H80.3246C80.3246 94.2533 80.1473 93.8473 79.7926 93.53C79.438 93.2033 78.976 93.04 78.4066 93.04C77.9026 93.0213 77.4733 93.1473 77.1186 93.418C76.764 93.6887 76.5866 94.0853 76.5866 94.608C76.5866 94.9533 76.6566 95.2287 76.7966 95.434C76.946 95.63 77.198 95.8027 77.5526 95.952C77.9073 96.1013 78.3973 96.2833 79.0226 96.498C79.4706 96.6473 79.872 96.806 80.2266 96.974C80.5813 97.1327 80.88 97.324 81.1226 97.548C81.3653 97.7627 81.552 98.024 81.6826 98.332C81.8133 98.6307 81.8786 98.9993 81.8786 99.438C81.8786 100.026 81.7246 100.525 81.4166 100.936C81.118 101.337 80.7166 101.645 80.2126 101.86C79.718 102.065 79.172 102.168 78.5746 102.168ZM86.4384 102.168C85.7944 102.168 85.2111 102.019 84.6884 101.72C84.1751 101.421 83.7691 101.001 83.4704 100.46C83.1717 99.9093 83.0224 99.2653 83.0224 98.528C83.0224 97.8 83.1624 97.1653 83.4424 96.624C83.7317 96.0733 84.1331 95.6487 84.6464 95.35C85.1691 95.042 85.7757 94.888 86.4664 94.888C87.1197 94.888 87.6891 95.0327 88.1744 95.322C88.6597 95.6113 89.0377 96.0033 89.3084 96.498C89.5884 96.9833 89.7284 97.5293 89.7284 98.136C89.7284 98.2667 89.7284 98.3693 89.7284 98.444C89.7284 98.5187 89.7237 98.6353 89.7144 98.794H84.1844C84.2124 99.2513 84.3197 99.662 84.5064 100.026C84.7024 100.381 84.9637 100.661 85.2904 100.866C85.6264 101.071 86.0091 101.174 86.4384 101.174C86.9237 101.174 87.3297 101.062 87.6564 100.838C87.9831 100.614 88.2211 100.311 88.3704 99.928H89.5324C89.4111 100.357 89.2104 100.74 88.9304 101.076C88.6504 101.412 88.3004 101.678 87.8804 101.874C87.4697 102.07 86.9891 102.168 86.4384 102.168ZM84.1984 97.884H88.5664C88.5384 97.2587 88.3237 96.7687 87.9224 96.414C87.5211 96.0593 87.0264 95.882 86.4384 95.882C85.8784 95.882 85.3791 96.0547 84.9404 96.4C84.5111 96.736 84.2637 97.2307 84.1984 97.884ZM91.1271 102V95.056H92.1911L92.2611 96.302C92.4851 95.8633 92.8071 95.518 93.2271 95.266C93.6471 95.014 94.1231 94.888 94.6551 94.888C95.4764 94.888 96.1298 95.14 96.6151 95.644C97.1098 96.1387 97.3571 96.904 97.3571 97.94V102H96.1811V98.066C96.1811 97.3473 96.0318 96.806 95.7331 96.442C95.4344 96.078 94.9864 95.896 94.3891 95.896C93.7918 95.896 93.2924 96.1153 92.8911 96.554C92.4991 96.9833 92.3031 97.5993 92.3031 98.402V102H91.1271ZM102.142 102.168C101.433 102.168 100.822 102.005 100.308 101.678C99.7952 101.351 99.3985 100.913 99.1185 100.362C98.8385 99.8113 98.6985 99.1953 98.6985 98.514C98.6985 97.842 98.8338 97.2307 99.1045 96.68C99.3845 96.1293 99.7812 95.6953 100.294 95.378C100.808 95.0513 101.428 94.888 102.156 94.888C102.726 94.888 103.23 95.0047 103.668 95.238C104.107 95.4713 104.448 95.798 104.69 96.218V92.2H105.866V102H104.802L104.69 100.852C104.466 101.188 104.144 101.491 103.724 101.762C103.304 102.033 102.777 102.168 102.142 102.168ZM102.268 101.146C102.782 101.146 103.216 101.029 103.57 100.796C103.925 100.553 104.191 100.236 104.368 99.844C104.555 99.4427 104.648 99.004 104.648 98.528C104.648 98.024 104.555 97.576 104.368 97.184C104.182 96.792 103.911 96.484 103.556 96.26C103.202 96.0267 102.772 95.91 102.268 95.91C101.82 95.91 101.419 96.0173 101.064 96.232C100.71 96.4467 100.425 96.75 100.21 97.142C100.005 97.5247 99.9025 97.9867 99.9025 98.528C99.9025 99.0693 100.01 99.536 100.224 99.928C100.439 100.32 100.724 100.623 101.078 100.838C101.442 101.043 101.839 101.146 102.268 101.146Z" fill="#59505E"/>
<path d="M54.2206 146.064V144.216C53.2446 144.088 52.3726 143.808 51.6046 143.376C50.8366 142.944 50.2286 142.352 49.7806 141.6C49.3486 140.848 49.1246 139.96 49.1086 138.936H51.7726C51.7886 139.72 52.0126 140.384 52.4446 140.928C52.8926 141.456 53.4846 141.816 54.2206 142.008V136.32L53.7886 136.176C52.8286 135.84 52.0366 135.464 51.4126 135.048C50.8046 134.616 50.3486 134.12 50.0446 133.56C49.7406 132.984 49.5886 132.336 49.5886 131.616C49.5886 130.688 49.7886 129.896 50.1886 129.24C50.5886 128.568 51.1406 128.04 51.8446 127.656C52.5486 127.272 53.3406 127.04 54.2206 126.96V125.016H55.8766V126.96C56.7566 127.04 57.5486 127.28 58.2526 127.68C58.9566 128.064 59.5166 128.592 59.9326 129.264C60.3646 129.936 60.5886 130.736 60.6046 131.664H57.8926C57.8926 131.072 57.7086 130.552 57.3406 130.104C56.9886 129.64 56.5006 129.328 55.8766 129.168V134.304L56.3566 134.472C56.9486 134.664 57.5246 134.888 58.0846 135.144C58.6606 135.4 59.1726 135.72 59.6206 136.104C60.0686 136.472 60.4206 136.928 60.6766 137.472C60.9486 138.016 61.0846 138.68 61.0846 139.464C61.0846 140.424 60.8526 141.248 60.3886 141.936C59.9246 142.624 59.3006 143.168 58.5166 143.568C57.7326 143.952 56.8526 144.184 55.8766 144.264V146.064H54.2206ZM55.8766 142.104C56.6286 142.024 57.2366 141.768 57.7006 141.336C58.1806 140.904 58.4206 140.336 58.4206 139.632C58.4206 139.152 58.3326 138.752 58.1566 138.432C57.9966 138.112 57.7326 137.832 57.3646 137.592C56.9966 137.352 56.5006 137.12 55.8766 136.896V142.104ZM54.2206 133.656V129.144C53.6446 129.24 53.1726 129.48 52.8046 129.864C52.4366 130.248 52.2526 130.76 52.2526 131.4C52.2526 131.96 52.4046 132.408 52.7086 132.744C53.0286 133.064 53.5326 133.368 54.2206 133.656ZM70.8122 144V140.64H62.8442V138.624L68.5802 127.2H71.1002L65.5322 138.408H70.9562V133.848H73.3562V138.408H75.5403V140.64H73.3562V144H70.8122ZM79.5285 144L86.4405 129.36H77.0325V127.2H89.0805V129.048L82.1925 144H79.5285ZM97.0527 144.288C95.5167 144.288 94.2847 143.904 93.3567 143.136C92.4287 142.368 91.7567 141.328 91.3407 140.016C90.9247 138.704 90.7167 137.232 90.7167 135.6C90.7167 133.968 90.9247 132.496 91.3407 131.184C91.7567 129.872 92.4287 128.832 93.3567 128.064C94.2847 127.296 95.5167 126.912 97.0527 126.912C98.5887 126.912 99.8128 127.288 100.725 128.04C101.653 128.792 102.325 129.824 102.741 131.136C103.157 132.448 103.365 133.936 103.365 135.6C103.365 137.264 103.157 138.752 102.741 140.064C102.325 141.376 101.653 142.408 100.725 143.16C99.8128 143.912 98.5887 144.288 97.0527 144.288ZM97.0527 142.008C98.3487 142.008 99.2927 141.44 99.8848 140.304C100.477 139.152 100.773 137.584 100.773 135.6C100.773 133.616 100.469 132.048 99.8607 130.896C99.2687 129.744 98.3327 129.168 97.0527 129.168C95.7727 129.168 94.8287 129.744 94.2207 130.896C93.6127 132.048 93.3087 133.616 93.3087 135.6C93.3087 137.584 93.6127 139.152 94.2207 140.304C94.8287 141.44 95.7727 142.008 97.0527 142.008ZM106.489 144.192C106.009 144.192 105.601 144.032 105.265 143.712C104.945 143.376 104.785 142.976 104.785 142.512C104.785 142.048 104.945 141.656 105.265 141.336C105.601 141 106.009 140.832 106.489 140.832C106.953 140.832 107.345 141 107.665 141.336C108.001 141.656 108.169 142.048 108.169 142.512C108.169 142.976 108.001 143.376 107.665 143.712C107.345 144.032 106.953 144.192 106.489 144.192ZM116.072 144.288C114.968 144.288 113.975 144.088 113.095 143.688C112.215 143.288 111.512 142.72 110.983 141.984C110.455 141.232 110.135 140.36 110.023 139.368H112.52C112.679 140.168 113.071 140.824 113.696 141.336C114.336 141.848 115.136 142.104 116.096 142.104C116.8 142.104 117.408 141.936 117.92 141.6C118.432 141.264 118.832 140.808 119.12 140.232C119.408 139.656 119.552 139.008 119.552 138.288C119.552 137.152 119.232 136.248 118.592 135.576C117.952 134.888 117.136 134.544 116.144 134.544C115.328 134.544 114.624 134.736 114.031 135.12C113.439 135.504 113.007 136 112.735 136.608H110.311L111.752 127.2H120.8V129.408H113.671L112.808 133.92C113.176 133.488 113.68 133.136 114.32 132.864C114.96 132.592 115.688 132.456 116.503 132.456C117.656 132.456 118.64 132.72 119.456 133.248C120.272 133.76 120.896 134.456 121.328 135.336C121.552 135.784 121.72 136.248 121.832 136.728C121.944 137.208 122 137.72 122 138.264C122 139.416 121.752 140.448 121.256 141.36C120.76 142.256 120.072 142.968 119.192 143.496C118.312 144.024 117.272 144.288 116.072 144.288ZM129.948 144.288C128.412 144.288 127.18 143.904 126.252 143.136C125.324 142.368 124.652 141.328 124.236 140.016C123.82 138.704 123.612 137.232 123.612 135.6C123.612 133.968 123.82 132.496 124.236 131.184C124.652 129.872 125.324 128.832 126.252 128.064C127.18 127.296 128.412 126.912 129.948 126.912C131.484 126.912 132.708 127.288 133.62 128.04C134.548 128.792 135.22 129.824 135.636 131.136C136.052 132.448 136.26 133.936 136.26 135.6C136.26 137.264 136.052 138.752 135.636 140.064C135.22 141.376 134.548 142.408 133.62 143.16C132.708 143.912 131.484 144.288 129.948 144.288ZM129.948 142.008C131.244 142.008 132.188 141.44 132.78 140.304C133.372 139.152 133.668 137.584 133.668 135.6C133.668 133.616 133.364 132.048 132.756 130.896C132.164 129.744 131.228 129.168 129.948 129.168C128.668 129.168 127.724 129.744 127.116 130.896C126.508 132.048 126.204 133.616 126.204 135.6C126.204 137.584 126.508 139.152 127.116 140.304C127.724 141.44 128.668 142.008 129.948 142.008Z" fill="#3F3842"/>
<path d="M303.665 144.168C302.788 144.168 302.074 143.991 301.523 143.636C300.972 143.281 300.566 142.81 300.305 142.222C300.053 141.634 299.927 140.999 299.927 140.318V134.2H301.411V140.332C301.411 141.191 301.616 141.821 302.027 142.222C302.447 142.623 303.002 142.824 303.693 142.824C304.384 142.824 304.934 142.623 305.345 142.222C305.756 141.821 305.961 141.191 305.961 140.332V134.2H307.445V140.318C307.445 141.046 307.333 141.657 307.109 142.152C306.885 142.647 306.586 143.043 306.213 143.342C305.84 143.631 305.429 143.841 304.981 143.972C304.542 144.103 304.104 144.168 303.665 144.168ZM312.381 144.168C311.709 144.168 311.098 144.051 310.547 143.818C310.006 143.575 309.577 143.225 309.259 142.768C308.942 142.301 308.779 141.727 308.769 141.046H310.323C310.333 141.606 310.524 142.059 310.897 142.404C311.271 142.74 311.765 142.908 312.381 142.908C312.913 142.908 313.347 142.782 313.683 142.53C314.029 142.269 314.201 141.909 314.201 141.452C314.201 141.172 314.155 140.943 314.061 140.766C313.968 140.579 313.814 140.416 313.599 140.276C313.394 140.136 313.119 140.005 312.773 139.884C312.428 139.753 312.003 139.604 311.499 139.436C310.939 139.24 310.477 139.021 310.113 138.778C309.759 138.526 309.493 138.237 309.315 137.91C309.138 137.574 309.049 137.196 309.049 136.776C309.049 136.179 309.189 135.679 309.469 135.278C309.759 134.867 310.146 134.559 310.631 134.354C311.117 134.139 311.653 134.032 312.241 134.032C312.839 134.032 313.375 134.139 313.851 134.354C314.337 134.559 314.724 134.872 315.013 135.292C315.312 135.703 315.466 136.207 315.475 136.804H313.893C313.893 136.375 313.735 136.015 313.417 135.726C313.109 135.437 312.699 135.292 312.185 135.292C311.747 135.283 311.373 135.395 311.065 135.628C310.757 135.861 310.603 136.202 310.603 136.65C310.603 136.967 310.692 137.224 310.869 137.42C311.047 137.616 311.313 137.789 311.667 137.938C312.022 138.087 312.465 138.255 312.997 138.442C313.343 138.554 313.679 138.685 314.005 138.834C314.341 138.983 314.64 139.17 314.901 139.394C315.163 139.609 315.368 139.875 315.517 140.192C315.676 140.509 315.755 140.897 315.755 141.354C315.755 141.951 315.601 142.46 315.293 142.88C314.995 143.291 314.589 143.608 314.075 143.832C313.571 144.056 313.007 144.168 312.381 144.168ZM317.163 144V134.2H320.341C321.508 134.2 322.46 134.401 323.197 134.802C323.944 135.203 324.495 135.773 324.849 136.51C325.204 137.247 325.381 138.115 325.381 139.114C325.381 140.141 325.195 141.018 324.821 141.746C324.448 142.474 323.888 143.034 323.141 143.426C322.395 143.809 321.461 144 320.341 144H317.163ZM318.647 142.74H320.285C321.172 142.74 321.872 142.595 322.385 142.306C322.908 142.017 323.281 141.601 323.505 141.06C323.739 140.519 323.855 139.87 323.855 139.114C323.855 137.863 323.566 136.939 322.987 136.342C322.409 135.745 321.508 135.446 320.285 135.446H318.647V142.74Z" fill="#3F3842"/>
<path d="M343.334 138.334L341 140.667L338.667 138.334" stroke="#242127" stroke-width="1.2" stroke-linecap="round" stroke-linejoin="round"/>
<rect x="28.5" y="183.5" width="339" height="96" rx="23.5" fill="white"/>
<rect x="28.5" y="183.5" width="339" height="96" rx="23.5" stroke="#F8F5FF"/>
<path d="M51.472 215V211.276L48.28 205.2H49.61L52.06 210.156L54.51 205.2H55.826L52.648 211.276V215H51.472ZM58.9026 215.168C58.268 215.168 57.6846 215.028 57.1526 214.748C56.6206 214.459 56.196 214.043 55.8786 213.502C55.5613 212.951 55.4026 212.289 55.4026 211.514C55.4026 210.777 55.5566 210.137 55.8646 209.596C56.182 209.055 56.6066 208.635 57.1386 208.336C57.68 208.037 58.2866 207.888 58.9586 207.888C59.6026 207.888 60.1906 208.028 60.7226 208.308C61.264 208.588 61.698 208.999 62.0246 209.54C62.3513 210.081 62.5146 210.739 62.5146 211.514C62.5146 212.223 62.3606 212.853 62.0526 213.404C61.7446 213.955 61.3153 214.389 60.7646 214.706C60.2233 215.014 59.6026 215.168 58.9026 215.168ZM58.9026 214.146C59.36 214.146 59.7706 214.039 60.1346 213.824C60.4986 213.6 60.788 213.292 61.0026 212.9C61.2173 212.508 61.3246 212.046 61.3246 211.514C61.3246 211.01 61.2313 210.562 61.0446 210.17C60.858 209.778 60.5873 209.47 60.2326 209.246C59.878 209.022 59.4486 208.91 58.9446 208.91C58.4313 208.91 57.9973 209.027 57.6426 209.26C57.2973 209.493 57.036 209.806 56.8586 210.198C56.6813 210.59 56.5926 211.029 56.5926 211.514C56.5926 212.13 56.7046 212.634 56.9286 213.026C57.1526 213.409 57.442 213.693 57.7966 213.88C58.1513 214.057 58.52 214.146 58.9026 214.146ZM66.5338 215.168C65.9925 215.168 65.5165 215.061 65.1058 214.846C64.7045 214.622 64.3918 214.286 64.1678 213.838C63.9438 213.381 63.8318 212.807 63.8318 212.116V208.056H65.0078V211.99C65.0078 212.709 65.1572 213.25 65.4558 213.614C65.7545 213.978 66.2025 214.16 66.7998 214.16C67.3972 214.16 67.8918 213.945 68.2838 213.516C68.6852 213.077 68.8858 212.457 68.8858 211.654V208.056H70.0618V215H68.9978L68.9278 213.754C68.7038 214.193 68.3818 214.538 67.9618 214.79C67.5418 215.042 67.0658 215.168 66.5338 215.168ZM75.4526 215V205.2H78.3506C79.0413 205.2 79.6293 205.303 80.1146 205.508C80.6 205.704 80.9733 206.003 81.2346 206.404C81.496 206.805 81.6266 207.314 81.6266 207.93C81.6266 208.695 81.426 209.274 81.0246 209.666C80.6326 210.058 80.096 210.315 79.4146 210.436L82.2286 215H80.7726L78.2526 210.66H76.6286V215H75.4526ZM76.6286 209.666H78.3226C78.8453 209.666 79.2606 209.605 79.5686 209.484C79.8766 209.353 80.096 209.157 80.2266 208.896C80.3573 208.635 80.4226 208.313 80.4226 207.93C80.4226 207.538 80.3573 207.211 80.2266 206.95C80.096 206.689 79.8766 206.497 79.5686 206.376C79.2606 206.245 78.8453 206.18 78.3226 206.18H76.6286V209.666ZM86.2196 215.168C85.5756 215.168 84.9923 215.019 84.4696 214.72C83.9563 214.421 83.5503 214.001 83.2516 213.46C82.953 212.909 82.8036 212.265 82.8036 211.528C82.8036 210.8 82.9436 210.165 83.2236 209.624C83.513 209.073 83.9143 208.649 84.4276 208.35C84.9503 208.042 85.557 207.888 86.2476 207.888C86.901 207.888 87.4703 208.033 87.9556 208.322C88.441 208.611 88.819 209.003 89.0896 209.498C89.3696 209.983 89.5096 210.529 89.5096 211.136C89.5096 211.267 89.5096 211.369 89.5096 211.444C89.5096 211.519 89.505 211.635 89.4956 211.794H83.9656C83.9936 212.251 84.101 212.662 84.2876 213.026C84.4836 213.381 84.745 213.661 85.0716 213.866C85.4076 214.071 85.7903 214.174 86.2196 214.174C86.705 214.174 87.111 214.062 87.4376 213.838C87.7643 213.614 88.0023 213.311 88.1516 212.928H89.3136C89.1923 213.357 88.9916 213.74 88.7116 214.076C88.4316 214.412 88.0816 214.678 87.6616 214.874C87.251 215.07 86.7703 215.168 86.2196 215.168ZM83.9796 210.884H88.3476C88.3196 210.259 88.105 209.769 87.7036 209.414C87.3023 209.059 86.8076 208.882 86.2196 208.882C85.6596 208.882 85.1603 209.055 84.7216 209.4C84.2923 209.736 84.045 210.231 83.9796 210.884ZM94.1003 215.168C93.447 215.168 92.8543 215.019 92.3223 214.72C91.7997 214.421 91.3843 214.001 91.0763 213.46C90.7683 212.909 90.6143 212.265 90.6143 211.528C90.6143 210.809 90.7637 210.179 91.0623 209.638C91.361 209.087 91.7717 208.658 92.2943 208.35C92.817 208.042 93.419 207.888 94.1003 207.888C94.9217 207.888 95.6123 208.103 96.1723 208.532C96.7417 208.961 97.101 209.535 97.2503 210.254H96.0463C95.953 209.825 95.7243 209.493 95.3603 209.26C94.9963 209.017 94.5717 208.896 94.0863 208.896C93.5917 208.896 93.1763 209.017 92.8403 209.26C92.5043 209.503 92.2477 209.825 92.0703 210.226C91.9023 210.627 91.8183 211.061 91.8183 211.528C91.8183 212.041 91.9163 212.499 92.1123 212.9C92.3083 213.301 92.5743 213.614 92.9103 213.838C93.2557 214.062 93.6477 214.174 94.0863 214.174C94.5717 214.174 94.9963 214.057 95.3603 213.824C95.7243 213.581 95.953 213.241 96.0463 212.802H97.2503C97.157 213.269 96.9657 213.679 96.6763 214.034C96.387 214.389 96.023 214.669 95.5843 214.874C95.1457 215.07 94.651 215.168 94.1003 215.168ZM101.855 215.168C101.211 215.168 100.627 215.019 100.105 214.72C99.5914 214.421 99.1854 214.001 98.8867 213.46C98.5881 212.909 98.4387 212.265 98.4387 211.528C98.4387 210.8 98.5787 210.165 98.8587 209.624C99.1481 209.073 99.5494 208.649 100.063 208.35C100.585 208.042 101.192 207.888 101.883 207.888C102.536 207.888 103.105 208.033 103.591 208.322C104.076 208.611 104.454 209.003 104.725 209.498C105.005 209.983 105.145 210.529 105.145 211.136C105.145 211.267 105.145 211.369 105.145 211.444C105.145 211.519 105.14 211.635 105.131 211.794H99.6007C99.6287 212.251 99.7361 212.662 99.9227 213.026C100.119 213.381 100.38 213.661 100.707 213.866C101.043 214.071 101.425 214.174 101.855 214.174C102.34 214.174 102.746 214.062 103.073 213.838C103.399 213.614 103.637 213.311 103.787 212.928H104.949C104.827 213.357 104.627 213.74 104.347 214.076C104.067 214.412 103.717 214.678 103.297 214.874C102.886 215.07 102.405 215.168 101.855 215.168ZM99.6147 210.884H103.983C103.955 210.259 103.74 209.769 103.339 209.414C102.937 209.059 102.443 208.882 101.855 208.882C101.295 208.882 100.795 209.055 100.357 209.4C99.9274 209.736 99.6801 210.231 99.6147 210.884ZM107.257 206.516C107.024 206.516 106.828 206.441 106.669 206.292C106.52 206.133 106.445 205.937 106.445 205.704C106.445 205.48 106.52 205.293 106.669 205.144C106.828 204.995 107.024 204.92 107.257 204.92C107.481 204.92 107.673 204.995 107.831 205.144C107.99 205.293 108.069 205.48 108.069 205.704C108.069 205.937 107.99 206.133 107.831 206.292C107.673 206.441 107.481 206.516 107.257 206.516ZM106.669 215V208.056H107.845V215H106.669ZM111.735 215L109.103 208.056H110.335L112.421 213.866L114.521 208.056H115.725L113.093 215H111.735ZM119.64 215.168C118.996 215.168 118.413 215.019 117.89 214.72C117.377 214.421 116.971 214.001 116.672 213.46C116.374 212.909 116.224 212.265 116.224 211.528C116.224 210.8 116.364 210.165 116.644 209.624C116.934 209.073 117.335 208.649 117.848 208.35C118.371 208.042 118.978 207.888 119.668 207.888C120.322 207.888 120.891 208.033 121.376 208.322C121.862 208.611 122.24 209.003 122.51 209.498C122.79 209.983 122.93 210.529 122.93 211.136C122.93 211.267 122.93 211.369 122.93 211.444C122.93 211.519 122.926 211.635 122.916 211.794H117.386C117.414 212.251 117.522 212.662 117.708 213.026C117.904 213.381 118.166 213.661 118.492 213.866C118.828 214.071 119.211 214.174 119.64 214.174C120.126 214.174 120.532 214.062 120.858 213.838C121.185 213.614 121.423 213.311 121.572 212.928H122.734C122.613 213.357 122.412 213.74 122.132 214.076C121.852 214.412 121.502 214.678 121.082 214.874C120.672 215.07 120.191 215.168 119.64 215.168ZM117.4 210.884H121.768C121.74 210.259 121.526 209.769 121.124 209.414C120.723 209.059 120.228 208.882 119.64 208.882C119.08 208.882 118.581 209.055 118.142 209.4C117.713 209.736 117.466 210.231 117.4 210.884Z" fill="#59505E"/>
<path d="M50.2169 257V240.2H52.7609L61.1849 252.8V240.2H63.7289V257H61.1849L52.7609 244.4V257H50.2169ZM68.8051 257L75.7171 242.36H66.3091V240.2H78.3571V242.048L71.4691 257H68.8051ZM86.3773 257.288C85.2253 257.288 84.2093 257.088 83.3293 256.688C82.4653 256.272 81.7773 255.68 81.2653 254.912C80.7533 254.144 80.4573 253.216 80.3773 252.128H82.8493C82.9613 252.976 83.3133 253.688 83.9053 254.264C84.5133 254.824 85.3373 255.104 86.3773 255.104C87.4333 255.104 88.2653 254.808 88.8733 254.216C89.4973 253.624 89.8093 252.824 89.8093 251.816C89.8093 250.792 89.4893 250.016 88.8493 249.488C88.2253 248.944 87.4093 248.672 86.4013 248.672C86.0813 248.672 85.7693 248.712 85.4653 248.792C85.1613 248.872 84.8733 248.992 84.6013 249.152L83.1373 247.472L88.5853 242.336H80.9773V240.2H91.7053V242.264L86.9533 246.776C87.7213 246.76 88.4253 246.872 89.0653 247.112C89.7053 247.352 90.2653 247.696 90.7453 248.144C91.2253 248.576 91.5933 249.104 91.8493 249.728C92.1213 250.352 92.2573 251.04 92.2573 251.792C92.2573 252.944 92.0093 253.936 91.5133 254.768C91.0173 255.584 90.3293 256.208 89.4493 256.64C88.5693 257.072 87.5453 257.288 86.3773 257.288ZM100.326 257.288C99.2696 257.288 98.3016 257.088 97.4216 256.688C96.5576 256.272 95.8616 255.696 95.3336 254.96C94.8216 254.224 94.5656 253.36 94.5656 252.368C94.5656 251.36 94.8216 250.464 95.3336 249.68C95.8616 248.88 96.5976 248.32 97.5416 248C96.7416 247.68 96.1096 247.2 95.6456 246.56C95.1976 245.904 94.9736 245.176 94.9736 244.376C94.9736 243.432 95.2136 242.624 95.6936 241.952C96.1896 241.28 96.8376 240.776 97.6376 240.44C98.4536 240.088 99.3496 239.912 100.326 239.912C101.318 239.912 102.214 240.088 103.014 240.44C103.814 240.792 104.454 241.304 104.934 241.976C105.414 242.648 105.654 243.448 105.654 244.376C105.654 245.16 105.422 245.888 104.958 246.56C104.51 247.216 103.886 247.696 103.086 248C104.03 248.32 104.758 248.88 105.27 249.68C105.798 250.48 106.062 251.376 106.062 252.368C106.062 253.136 105.91 253.824 105.606 254.432C105.302 255.04 104.878 255.56 104.334 255.992C103.806 256.408 103.198 256.728 102.51 256.952C101.822 257.176 101.094 257.288 100.326 257.288ZM100.326 255.104C101.318 255.104 102.102 254.848 102.678 254.336C103.27 253.808 103.566 253.088 103.566 252.176C103.566 251.2 103.262 250.456 102.654 249.944C102.062 249.432 101.286 249.176 100.326 249.176C99.3816 249.176 98.6056 249.432 97.9976 249.944C97.3896 250.456 97.0856 251.2 97.0856 252.176C97.0856 253.056 97.3656 253.768 97.9256 254.312C98.4856 254.84 99.2856 255.104 100.326 255.104ZM100.326 247.184C101.126 247.184 101.79 246.952 102.318 246.488C102.862 246.024 103.134 245.4 103.134 244.616C103.134 243.768 102.87 243.128 102.342 242.696C101.814 242.248 101.142 242.024 100.326 242.024C99.5096 242.024 98.8376 242.248 98.3096 242.696C97.7816 243.128 97.5176 243.768 97.5176 244.616C97.5176 245.4 97.7816 246.024 98.3096 246.488C98.8376 246.952 99.5096 247.184 100.326 247.184ZM107.41 259.808L108.802 254.168H111.322L109.114 259.808H107.41ZM115.532 257L122.444 242.36H113.036V240.2H125.084V242.048L118.196 257H115.532ZM127.465 257V255.008C127.465 255.008 127.569 254.904 127.777 254.696C127.985 254.472 128.257 254.184 128.593 253.832C128.945 253.48 129.329 253.088 129.745 252.656C130.161 252.224 130.585 251.784 131.017 251.336C131.449 250.872 131.857 250.44 132.241 250.04C132.897 249.368 133.489 248.752 134.017 248.192C134.561 247.616 134.993 247.064 135.313 246.536C135.633 246.008 135.793 245.496 135.793 245C135.793 244.12 135.553 243.416 135.073 242.888C134.609 242.344 133.921 242.072 133.009 242.072C132.369 242.072 131.817 242.216 131.353 242.504C130.905 242.792 130.569 243.184 130.345 243.68C130.121 244.16 130.009 244.704 130.009 245.312H127.537C127.553 244.176 127.793 243.208 128.257 242.408C128.721 241.608 129.361 240.992 130.177 240.56C131.009 240.128 131.969 239.912 133.057 239.912C134.193 239.912 135.153 240.12 135.937 240.536C136.721 240.952 137.313 241.536 137.713 242.288C138.113 243.04 138.313 243.92 138.313 244.928C138.313 245.696 138.129 246.416 137.761 247.088C137.409 247.744 136.961 248.368 136.417 248.96C135.873 249.552 135.313 250.136 134.737 250.712C134.385 251.064 134.017 251.432 133.633 251.816C133.265 252.184 132.905 252.552 132.553 252.92C132.217 253.272 131.905 253.6 131.617 253.904C131.345 254.192 131.121 254.424 130.945 254.6C130.785 254.76 130.705 254.84 130.705 254.84H138.793V257H127.465ZM141.461 257V255.008C141.461 255.008 141.565 254.904 141.773 254.696C141.981 254.472 142.253 254.184 142.589 253.832C142.941 253.48 143.325 253.088 143.741 252.656C144.157 252.224 144.581 251.784 145.013 251.336C145.445 250.872 145.853 250.44 146.237 250.04C146.893 249.368 147.485 248.752 148.013 248.192C148.557 247.616 148.989 247.064 149.309 246.536C149.629 246.008 149.789 245.496 149.789 245C149.789 244.12 149.549 243.416 149.069 242.888C148.605 242.344 147.917 242.072 147.005 242.072C146.365 242.072 145.813 242.216 145.349 242.504C144.901 242.792 144.565 243.184 144.341 243.68C144.117 244.16 144.005 244.704 144.005 245.312H141.533C141.549 244.176 141.789 243.208 142.253 242.408C142.717 241.608 143.357 240.992 144.173 240.56C145.005 240.128 145.965 239.912 147.053 239.912C148.189 239.912 149.149 240.12 149.933 240.536C150.717 240.952 151.309 241.536 151.709 242.288C152.109 243.04 152.309 243.92 152.309 244.928C152.309 245.696 152.125 246.416 151.757 247.088C151.405 247.744 150.957 248.368 150.413 248.96C149.869 249.552 149.309 250.136 148.733 250.712C148.381 251.064 148.013 251.432 147.629 251.816C147.261 252.184 146.901 252.552 146.549 252.92C146.213 253.272 145.901 253.6 145.613 253.904C145.341 254.192 145.117 254.424 144.941 254.6C144.781 254.76 144.701 254.84 144.701 254.84H152.789V257H141.461ZM156.489 257.192C156.009 257.192 155.601 257.032 155.265 256.712C154.945 256.376 154.785 255.976 154.785 255.512C154.785 255.048 154.945 254.656 155.265 254.336C155.601 254 156.009 253.832 156.489 253.832C156.953 253.832 157.345 254 157.665 254.336C158.001 254.656 158.169 255.048 158.169 255.512C158.169 255.976 158.001 256.376 157.665 256.712C157.345 257.032 156.953 257.192 156.489 257.192ZM160.864 257V254.864H165.712V243.056L160.984 244.232V242.36L166.792 240.2H168.136V254.864H172.24V257H160.864ZM179.948 257.288C178.412 257.288 177.18 256.904 176.252 256.136C175.324 255.368 174.652 254.328 174.236 253.016C173.82 251.704 173.612 250.232 173.612 248.6C173.612 246.968 173.82 245.496 174.236 244.184C174.652 242.872 175.324 241.832 176.252 241.064C177.18 240.296 178.412 239.912 179.948 239.912C181.484 239.912 182.708 240.288 183.62 241.04C184.548 241.792 185.22 242.824 185.636 244.136C186.052 245.448 186.26 246.936 186.26 248.6C186.26 250.264 186.052 251.752 185.636 253.064C185.22 254.376 184.548 255.408 183.62 256.16C182.708 256.912 181.484 257.288 179.948 257.288ZM179.948 255.008C181.244 255.008 182.188 254.44 182.78 253.304C183.372 252.152 183.668 250.584 183.668 248.6C183.668 246.616 183.364 245.048 182.756 243.896C182.164 242.744 181.228 242.168 179.948 242.168C178.668 242.168 177.724 242.744 177.116 243.896C176.508 245.048 176.204 246.616 176.204 248.6C176.204 250.584 176.508 252.152 177.116 253.304C177.724 254.44 178.668 255.008 179.948 255.008Z" fill="#3F3842"/>
<path d="M48.5609 249.872H65.2291V251.072H48.5609V249.872Z" fill="#3F3842"/>
<path d="M297.003 257V247.2H298.487L303.401 254.55V247.2H304.885V257H303.401L298.487 249.65V257H297.003ZM310.915 257.168C309.982 257.168 309.17 256.953 308.479 256.524C307.798 256.095 307.266 255.502 306.883 254.746C306.501 253.99 306.309 253.117 306.309 252.128C306.309 251.167 306.496 250.303 306.869 249.538C307.243 248.763 307.789 248.152 308.507 247.704C309.235 247.256 310.113 247.032 311.139 247.032C312.269 247.032 313.202 247.303 313.939 247.844C314.686 248.385 315.171 249.132 315.395 250.084H313.715C313.575 249.561 313.281 249.151 312.833 248.852C312.395 248.544 311.83 248.39 311.139 248.39C310.43 248.39 309.828 248.549 309.333 248.866C308.839 249.183 308.465 249.622 308.213 250.182C307.961 250.742 307.835 251.395 307.835 252.142C307.835 252.879 307.961 253.528 308.213 254.088C308.465 254.648 308.829 255.082 309.305 255.39C309.791 255.689 310.36 255.838 311.013 255.838C311.956 255.838 312.67 255.581 313.155 255.068C313.65 254.545 313.949 253.841 314.051 252.954H310.719V251.736H315.577V257H314.205L314.093 255.544C313.757 256.067 313.342 256.468 312.847 256.748C312.353 257.028 311.709 257.168 310.915 257.168ZM317.15 257V247.2H318.634L323.548 254.55V247.2H325.032V257H323.548L318.634 249.65V257H317.15Z" fill="#3F3842"/>
<path d="M343.334 251.334L341 253.667L338.667 251.334" stroke="#242127" stroke-width="1.2" stroke-linecap="round" stroke-linejoin="round"/>
<g filter="url(#filter0_d_569_9784)">
<rect x="176" y="153" width="44" height="44" rx="22" fill="#7950E9"/>
<rect x="177.5" y="154.5" width="41" height="41" rx="20.5" stroke="white" stroke-width="3"/>
<path d="M203 172.5V177.5C203 180.262 200.762 182.5 198 182.5C196.407 182.5 194.991 181.753 194.075 180.592" stroke="white" stroke-width="1.5" stroke-linecap="round" stroke-linejoin="round"/>
<path d="M193 177.5V172.5C193 169.738 195.238 167.5 198 167.5C199.593 167.5 201.009 168.248 201.925 169.408" stroke="white" stroke-width="1.5" stroke-linecap="round" stroke-linejoin="round"/>
<path d="M195.083 175.417L193 177.5L190.916 175.417" stroke="white" stroke-width="1.5" stroke-linecap="round" stroke-linejoin="round"/>
<path d="M200.916 174.583L203 172.5L205.083 174.583" stroke="white" stroke-width="1.5" stroke-linecap="round" stroke-linejoin="round"/>
</g>
<rect x="0.5" y="332.5" width="395" height="71" rx="19.5" stroke="#D4C5FD"/>
<rect x="4" y="336" width="388" height="64" rx="16" fill="white"/>
<g clip-path="url(#clip0_569_9784)">
<rect x="28.2083" y="352.208" width="31.5833" height="31.5833" rx="1.45833" fill="white" stroke="#F5F5F5" stroke-width="0.416667"/>
<mask id="mask0_569_9784" style="mask-type:luminance" maskUnits="userSpaceOnUse" x="28" y="352" width="32" height="32">
<rect x="28.2083" y="352.208" width="31.5833" height="31.5833" rx="1.45833" fill="white" stroke="white" stroke-width="0.416667"/>
</mask>
<g mask="url(#mask0_569_9784)">
<rect x="49.333" y="352" width="10.6667" height="32" fill="#189B62"/>
<path fillRule="evenodd" clipRule="evenodd" d="M28 384H38.6667V352H28V384Z" fill="#189B62"/>
</g>
</g>
<rect x="29.5" y="353.5" width="29" height="29" rx="14.5" stroke="#F8F5FF" stroke-width="3"/>
<g clip-path="url(#clip1_569_9784)">
<rect x="48" y="352" width="32" height="32" rx="1.66667" fill="white"/>
<mask id="mask1_569_9784" style="mask-type:luminance" maskUnits="userSpaceOnUse" x="48" y="352" width="32" height="32">
<rect x="48" y="352" width="32" height="32" rx="1.66667" fill="white"/>
</mask>
<g mask="url(#mask1_569_9784)">
<path fillRule="evenodd" clipRule="evenodd" d="M80 352H48V354.133H80V352ZM80 356.267H48V358.4H80V356.267ZM48 360.534H80V362.667H48V360.534ZM80 364.8H48V366.934H80V364.8ZM48 369.067H80V371.2H48V369.067ZM80 373.333H48V375.466H80V373.333ZM48 377.6H80V379.733H48V377.6ZM80 381.867H48V384H80V381.867Z" fill="#D02F44"/>
<rect x="48" y="352" width="13.7143" height="14.9333" fill="#46467F"/>
<g filter="url(#filter1_d_569_9784)">
<path fillRule="evenodd" clipRule="evenodd" d="M51.0472 355.199C51.0472 355.789 50.7061 356.266 50.2853 356.266C49.8646 356.266 49.5234 355.789 49.5234 355.199C49.5234 354.61 49.8646 354.133 50.2853 354.133C50.7061 354.133 51.0472 354.61 51.0472 355.199ZM54.0941 355.2C54.0941 355.789 53.753 356.266 53.3322 356.266C52.9114 356.266 52.5703 355.789 52.5703 355.2C52.5703 354.611 52.9114 354.133 53.3322 354.133C53.753 354.133 54.0941 354.611 54.0941 355.2ZM56.3807 356.266C56.8015 356.266 57.1426 355.789 57.1426 355.2C57.1426 354.611 56.8015 354.133 56.3807 354.133C55.9599 354.133 55.6188 354.611 55.6188 355.2C55.6188 355.789 55.9599 356.266 56.3807 356.266ZM60.1895 355.2C60.1895 355.789 59.8484 356.266 59.4276 356.266C59.0068 356.266 58.6657 355.789 58.6657 355.2C58.6657 354.611 59.0068 354.133 59.4276 354.133C59.8484 354.133 60.1895 354.611 60.1895 355.2ZM51.8088 358.399C52.2296 358.399 52.5707 357.922 52.5707 357.333C52.5707 356.744 52.2296 356.266 51.8088 356.266C51.388 356.266 51.0469 356.744 51.0469 357.333C51.0469 357.922 51.388 358.399 51.8088 358.399ZM55.6192 357.333C55.6192 357.922 55.2781 358.399 54.8573 358.399C54.4365 358.399 54.0954 357.922 54.0954 357.333C54.0954 356.744 54.4365 356.266 54.8573 356.266C55.2781 356.266 55.6192 356.744 55.6192 357.333ZM57.9042 358.399C58.3249 358.399 58.6661 357.922 58.6661 357.333C58.6661 356.744 58.3249 356.266 57.9042 356.266C57.4834 356.266 57.1423 356.744 57.1423 357.333C57.1423 357.922 57.4834 358.399 57.9042 358.399ZM60.1895 359.466C60.1895 360.056 59.8484 360.533 59.4276 360.533C59.0068 360.533 58.6657 360.056 58.6657 359.466C58.6657 358.877 59.0068 358.4 59.4276 358.4C59.8484 358.4 60.1895 358.877 60.1895 359.466ZM56.3807 360.533C56.8015 360.533 57.1426 360.056 57.1426 359.466C57.1426 358.877 56.8015 358.4 56.3807 358.4C55.9599 358.4 55.6188 358.877 55.6188 359.466C55.6188 360.056 55.9599 360.533 56.3807 360.533ZM54.0941 359.466C54.0941 360.056 53.753 360.533 53.3322 360.533C52.9114 360.533 52.5703 360.056 52.5703 359.466C52.5703 358.877 52.9114 358.4 53.3322 358.4C53.753 358.4 54.0941 358.877 54.0941 359.466ZM50.2853 360.533C50.7061 360.533 51.0472 360.056 51.0472 359.466C51.0472 358.877 50.7061 358.4 50.2853 358.4C49.8646 358.4 49.5234 358.877 49.5234 359.466C49.5234 360.056 49.8646 360.533 50.2853 360.533ZM52.5707 361.599C52.5707 362.188 52.2296 362.666 51.8088 362.666C51.388 362.666 51.0469 362.188 51.0469 361.599C51.0469 361.01 51.388 360.533 51.8088 360.533C52.2296 360.533 52.5707 361.01 52.5707 361.599ZM54.8573 362.666C55.2781 362.666 55.6192 362.188 55.6192 361.599C55.6192 361.01 55.2781 360.533 54.8573 360.533C54.4365 360.533 54.0954 361.01 54.0954 361.599C54.0954 362.188 54.4365 362.666 54.8573 362.666ZM58.6661 361.599C58.6661 362.188 58.3249 362.666 57.9042 362.666C57.4834 362.666 57.1423 362.188 57.1423 361.599C57.1423 361.01 57.4834 360.533 57.9042 360.533C58.3249 360.533 58.6661 361.01 58.6661 361.599ZM59.4276 364.8C59.8484 364.8 60.1895 364.322 60.1895 363.733C60.1895 363.144 59.8484 362.667 59.4276 362.667C59.0068 362.667 58.6657 363.144 58.6657 363.733C58.6657 364.322 59.0068 364.8 59.4276 364.8ZM57.1426 363.733C57.1426 364.322 56.8015 364.8 56.3807 364.8C55.9599 364.8 55.6188 364.322 55.6188 363.733C55.6188 363.144 55.9599 362.667 56.3807 362.667C56.8015 362.667 57.1426 363.144 57.1426 363.733ZM53.3322 364.8C53.753 364.8 54.0941 364.322 54.0941 363.733C54.0941 363.144 53.753 362.667 53.3322 362.667C52.9114 362.667 52.5703 363.144 52.5703 363.733C52.5703 364.322 52.9114 364.8 53.3322 364.8ZM51.0472 363.733C51.0472 364.322 50.7061 364.8 50.2853 364.8C49.8646 364.8 49.5234 364.322 49.5234 363.733C49.5234 363.144 49.8646 362.667 50.2853 362.667C50.7061 362.667 51.0472 363.144 51.0472 363.733Z" fill="url(#paint0_linear_569_9784)"/>
</g>
</g>
</g>
<rect x="49.5" y="353.5" width="29" height="29" rx="14.5" stroke="#F8F5FF" stroke-width="3"/>
<g clip-path="url(#clip2_569_9784)">
<rect x="68" y="352" width="32" height="32" rx="1.66667" fill="white"/>
<mask id="mask2_569_9784" style="mask-type:luminance" maskUnits="userSpaceOnUse" x="68" y="352" width="32" height="32">
<rect x="68" y="352" width="32" height="32" rx="1.66667" fill="white"/>
</mask>
<g mask="url(#mask2_569_9784)">
<path fillRule="evenodd" clipRule="evenodd" d="M68 360.533H100V352H68V360.533Z" fill="#262626"/>
<path fillRule="evenodd" clipRule="evenodd" d="M68 384H100V375.467H68V384Z" fill="#018301"/>
<path fillRule="evenodd" clipRule="evenodd" d="M68 375.467H100V360.533H68V375.467Z" fill="white"/>
<path fillRule="evenodd" clipRule="evenodd" d="M68 373.333H100V362.666H68V373.333Z" fill="#DC0808"/>
<path fillRule="evenodd" clipRule="evenodd" d="M84 378.666C85.5238 378.666 87.8095 374.48 87.8095 368C87.8095 361.52 85.5238 357.333 84 357.333C82.4761 357.333 80.1904 361.52 80.1904 368C80.1904 374.48 82.4761 378.666 84 378.666Z" fill="#BC0000"/>
<mask id="mask3_569_9784" style="mask-type:luminance" maskUnits="userSpaceOnUse" x="80" y="357" width="8" height="22">
<path fillRule="evenodd" clipRule="evenodd" d="M84 378.666C85.5238 378.666 87.8095 374.48 87.8095 368C87.8095 361.52 85.5238 357.333 84 357.333C82.4761 357.333 80.1904 361.52 80.1904 368C80.1904 374.48 82.4761 378.666 84 378.666Z" fill="white"/>
</mask>
<g mask="url(#mask3_569_9784)">
<path fillRule="evenodd" clipRule="evenodd" d="M77.9043 379.732C80.0082 379.732 81.7138 374.479 81.7138 367.999C81.7138 361.519 80.0082 356.266 77.9043 356.266C75.8003 356.266 74.0947 361.519 74.0947 367.999C74.0947 374.479 75.8003 379.732 77.9043 379.732Z" fill="#262626"/>
<path fillRule="evenodd" clipRule="evenodd" d="M90.0957 379.732C92.1996 379.732 93.9052 374.479 93.9052 367.999C93.9052 361.519 92.1996 356.266 90.0957 356.266C87.9917 356.266 86.2861 361.519 86.2861 367.999C86.2861 374.479 87.9917 379.732 90.0957 379.732Z" fill="#262626"/>
<g filter="url(#filter2_d_569_9784)">
<path fillRule="evenodd" clipRule="evenodd" d="M83.9982 364.8C84.419 364.8 84.7601 362.89 84.7601 360.533C84.7601 358.177 84.419 356.267 83.9982 356.267C83.5774 356.267 83.2363 358.177 83.2363 360.533C83.2363 362.89 83.5774 364.8 83.9982 364.8ZM84.0047 371.2C84.4225 371.186 84.7601 369.758 84.7601 368C84.7601 366.233 84.419 364.8 83.9982 364.8C83.5774 364.8 83.2363 366.233 83.2363 368C83.2363 369.758 83.574 371.186 83.9918 371.2C83.574 371.219 83.2363 373.122 83.2363 375.467C83.2363 377.823 83.5774 379.733 83.9982 379.733C84.419 379.733 84.7601 377.823 84.7601 375.467C84.7601 373.122 84.4225 371.219 84.0047 371.2Z" fill="url(#paint1_linear_569_9784)"/>
</g>
</g>
</g>
</g>
<rect x="69.5" y="353.5" width="29" height="29" rx="14.5" stroke="#F8F5FF" stroke-width="3"/>
<rect x="89.5" y="353.5" width="29" height="29" rx="14.5" fill="#242127"/>
<rect x="89.5" y="353.5" width="29" height="29" rx="14.5" stroke="white" stroke-width="3"/>
<path d="M99.182 371.992V369.43H96.508V368.436H99.182V365.888H100.232V368.436H102.906V369.43H100.232V371.992H99.182ZM108.019 373.168C107.393 373.168 106.829 373.056 106.325 372.832C105.83 372.599 105.429 372.272 105.121 371.852C104.813 371.423 104.621 370.923 104.547 370.354H105.695C105.807 370.895 106.068 371.334 106.479 371.67C106.889 371.997 107.407 372.16 108.033 372.16C108.499 372.16 108.901 372.053 109.237 371.838C109.573 371.623 109.829 371.329 110.007 370.956C110.193 370.583 110.287 370.163 110.287 369.696C110.287 368.968 110.081 368.38 109.671 367.932C109.26 367.484 108.728 367.26 108.075 367.26C107.533 367.26 107.071 367.381 106.689 367.624C106.306 367.867 106.026 368.184 105.849 368.576H104.729L105.569 363.2H110.707V364.222H106.479L105.905 367.204C106.129 366.933 106.437 366.709 106.829 366.532C107.23 366.355 107.687 366.266 108.201 366.266C108.845 366.266 109.405 366.415 109.881 366.714C110.366 367.013 110.744 367.419 111.015 367.932C111.145 368.193 111.243 368.469 111.309 368.758C111.383 369.047 111.421 369.355 111.421 369.682C111.421 370.363 111.276 370.965 110.987 371.488C110.707 372.011 110.31 372.421 109.797 372.72C109.293 373.019 108.7 373.168 108.019 373.168Z" fill="white"/>
<path d="M207.036 373V363.2H208.408L211.796 370.004L215.156 363.2H216.542V373H215.366V365.328L212.23 371.6H211.348L208.212 365.342V373H207.036ZM220.934 373.168C220.393 373.168 219.917 373.061 219.506 372.846C219.105 372.622 218.792 372.286 218.568 371.838C218.344 371.381 218.232 370.807 218.232 370.116V366.056H219.408V369.99C219.408 370.709 219.557 371.25 219.856 371.614C220.155 371.978 220.603 372.16 221.2 372.16C221.797 372.16 222.292 371.945 222.684 371.516C223.085 371.077 223.286 370.457 223.286 369.654V366.056H224.462V373H223.398L223.328 371.754C223.104 372.193 222.782 372.538 222.362 372.79C221.942 373.042 221.466 373.168 220.934 373.168ZM226.238 373V363.2H227.414V373H226.238ZM231.925 373C231.291 373 230.791 372.846 230.427 372.538C230.063 372.23 229.881 371.675 229.881 370.872V367.05H228.677V366.056H229.881V364.39H231.057V366.056H233.003V367.05H231.057V370.872C231.057 371.311 231.146 371.609 231.323 371.768C231.501 371.917 231.813 371.992 232.261 371.992H233.003V373H231.925ZM235.149 364.516C234.916 364.516 234.72 364.441 234.561 364.292C234.412 364.133 234.337 363.937 234.337 363.704C234.337 363.48 234.412 363.293 234.561 363.144C234.72 362.995 234.916 362.92 235.149 362.92C235.373 362.92 235.565 362.995 235.723 363.144C235.882 363.293 235.961 363.48 235.961 363.704C235.961 363.937 235.882 364.133 235.723 364.292C235.565 364.441 235.373 364.516 235.149 364.516ZM234.561 373V366.056H235.737V373H234.561ZM237.485 369.43V368.436H243.029V369.43H237.485ZM247.835 373.168C247.181 373.168 246.589 373.019 246.057 372.72C245.534 372.421 245.119 372.001 244.811 371.46C244.503 370.909 244.349 370.265 244.349 369.528C244.349 368.809 244.498 368.179 244.797 367.638C245.095 367.087 245.506 366.658 246.029 366.35C246.551 366.042 247.153 365.888 247.835 365.888C248.656 365.888 249.347 366.103 249.907 366.532C250.476 366.961 250.835 367.535 250.985 368.254H249.781C249.687 367.825 249.459 367.493 249.095 367.26C248.731 367.017 248.306 366.896 247.821 366.896C247.326 366.896 246.911 367.017 246.575 367.26C246.239 367.503 245.982 367.825 245.805 368.226C245.637 368.627 245.553 369.061 245.553 369.528C245.553 370.041 245.651 370.499 245.847 370.9C246.043 371.301 246.309 371.614 246.645 371.838C246.99 372.062 247.382 372.174 247.821 372.174C248.306 372.174 248.731 372.057 249.095 371.824C249.459 371.581 249.687 371.241 249.781 370.802H250.985C250.891 371.269 250.7 371.679 250.411 372.034C250.121 372.389 249.757 372.669 249.319 372.874C248.88 373.07 248.385 373.168 247.835 373.168ZM255.015 373.168C254.474 373.168 253.998 373.061 253.587 372.846C253.186 372.622 252.873 372.286 252.649 371.838C252.425 371.381 252.313 370.807 252.313 370.116V366.056H253.489V369.99C253.489 370.709 253.638 371.25 253.937 371.614C254.236 371.978 254.684 372.16 255.281 372.16C255.878 372.16 256.373 371.945 256.765 371.516C257.166 371.077 257.367 370.457 257.367 369.654V366.056H258.543V373H257.479L257.409 371.754C257.185 372.193 256.863 372.538 256.443 372.79C256.023 373.042 255.547 373.168 255.015 373.168ZM260.319 373V366.056H261.383L261.481 367.386C261.695 366.929 262.022 366.565 262.461 366.294C262.899 366.023 263.441 365.888 264.085 365.888V367.12H263.763C262.997 367.12 262.428 367.325 262.055 367.736C261.681 368.147 261.495 368.735 261.495 369.5V373H260.319ZM265.245 373V366.056H266.309L266.407 367.386C266.621 366.929 266.948 366.565 267.387 366.294C267.825 366.023 268.367 365.888 269.011 365.888V367.12H268.689C267.923 367.12 267.354 367.325 266.981 367.736C266.607 368.147 266.421 368.735 266.421 369.5V373H265.245ZM273.033 373.168C272.389 373.168 271.806 373.019 271.283 372.72C270.77 372.421 270.364 372.001 270.065 371.46C269.766 370.909 269.617 370.265 269.617 369.528C269.617 368.8 269.757 368.165 270.037 367.624C270.326 367.073 270.728 366.649 271.241 366.35C271.764 366.042 272.37 365.888 273.061 365.888C273.714 365.888 274.284 366.033 274.769 366.322C275.254 366.611 275.632 367.003 275.903 367.498C276.183 367.983 276.323 368.529 276.323 369.136C276.323 369.267 276.323 369.369 276.323 369.444C276.323 369.519 276.318 369.635 276.309 369.794H270.779C270.807 370.251 270.914 370.662 271.101 371.026C271.297 371.381 271.558 371.661 271.885 371.866C272.221 372.071 272.604 372.174 273.033 372.174C273.518 372.174 273.924 372.062 274.251 371.838C274.578 371.614 274.816 371.311 274.965 370.928H276.127C276.006 371.357 275.805 371.74 275.525 372.076C275.245 372.412 274.895 372.678 274.475 372.874C274.064 373.07 273.584 373.168 273.033 373.168ZM270.793 368.884H275.161C275.133 368.259 274.918 367.769 274.517 367.414C274.116 367.059 273.621 366.882 273.033 366.882C272.473 366.882 271.974 367.055 271.535 367.4C271.106 367.736 270.858 368.231 270.793 368.884ZM277.722 373V366.056H278.786L278.856 367.302C279.08 366.863 279.402 366.518 279.822 366.266C280.242 366.014 280.718 365.888 281.25 365.888C282.071 365.888 282.724 366.14 283.21 366.644C283.704 367.139 283.952 367.904 283.952 368.94V373H282.776V369.066C282.776 368.347 282.626 367.806 282.328 367.442C282.029 367.078 281.581 366.896 280.984 366.896C280.386 366.896 279.887 367.115 279.486 367.554C279.094 367.983 278.898 368.599 278.898 369.402V373H277.722ZM288.779 373.168C288.126 373.168 287.533 373.019 287.001 372.72C286.478 372.421 286.063 372.001 285.755 371.46C285.447 370.909 285.293 370.265 285.293 369.528C285.293 368.809 285.442 368.179 285.741 367.638C286.04 367.087 286.45 366.658 286.973 366.35C287.496 366.042 288.098 365.888 288.779 365.888C289.6 365.888 290.291 366.103 290.851 366.532C291.42 366.961 291.78 367.535 291.929 368.254H290.725C290.632 367.825 290.403 367.493 290.039 367.26C289.675 367.017 289.25 366.896 288.765 366.896C288.27 366.896 287.855 367.017 287.519 367.26C287.183 367.503 286.926 367.825 286.749 368.226C286.581 368.627 286.497 369.061 286.497 369.528C286.497 370.041 286.595 370.499 286.791 370.9C286.987 371.301 287.253 371.614 287.589 371.838C287.934 372.062 288.326 372.174 288.765 372.174C289.25 372.174 289.675 372.057 290.039 371.824C290.403 371.581 290.632 371.241 290.725 370.802H291.929C291.836 371.269 291.644 371.679 291.355 372.034C291.066 372.389 290.702 372.669 290.263 372.874C289.824 373.07 289.33 373.168 288.779 373.168ZM294.167 376.08L295.707 372.72L292.725 366.056H293.999L296.295 371.46L298.731 366.056H299.949L295.399 376.08H294.167ZM307.698 373.168C307.054 373.168 306.47 373.019 305.948 372.72C305.434 372.421 305.028 372.001 304.73 371.46C304.431 370.909 304.282 370.265 304.282 369.528C304.282 368.8 304.422 368.165 304.702 367.624C304.991 367.073 305.392 366.649 305.906 366.35C306.428 366.042 307.035 365.888 307.726 365.888C308.379 365.888 308.948 366.033 309.434 366.322C309.919 366.611 310.297 367.003 310.568 367.498C310.848 367.983 310.988 368.529 310.988 369.136C310.988 369.267 310.988 369.369 310.988 369.444C310.988 369.519 310.983 369.635 310.974 369.794H305.444C305.472 370.251 305.579 370.662 305.766 371.026C305.962 371.381 306.223 371.661 306.55 371.866C306.886 372.071 307.268 372.174 307.698 372.174C308.183 372.174 308.589 372.062 308.916 371.838C309.242 371.614 309.48 371.311 309.63 370.928H310.792C310.67 371.357 310.47 371.74 310.19 372.076C309.91 372.412 309.56 372.678 309.14 372.874C308.729 373.07 308.248 373.168 307.698 373.168ZM305.458 368.884H309.826C309.798 368.259 309.583 367.769 309.182 367.414C308.78 367.059 308.286 366.882 307.698 366.882C307.138 366.882 306.638 367.055 306.2 367.4C305.77 367.736 305.523 368.231 305.458 368.884ZM311.358 373L313.766 369.528L311.358 366.056H312.632L314.578 368.926L316.538 366.056H317.798L315.39 369.528L317.798 373H316.538L314.578 370.13L312.632 373H311.358ZM321.762 373.168C321.109 373.168 320.516 373.019 319.984 372.72C319.462 372.421 319.046 372.001 318.738 371.46C318.43 370.909 318.276 370.265 318.276 369.528C318.276 368.809 318.426 368.179 318.724 367.638C319.023 367.087 319.434 366.658 319.956 366.35C320.479 366.042 321.081 365.888 321.762 365.888C322.584 365.888 323.274 366.103 323.834 366.532C324.404 366.961 324.763 367.535 324.912 368.254H323.708C323.615 367.825 323.386 367.493 323.022 367.26C322.658 367.017 322.234 366.896 321.748 366.896C321.254 366.896 320.838 367.017 320.502 367.26C320.166 367.503 319.91 367.825 319.732 368.226C319.564 368.627 319.48 369.061 319.48 369.528C319.48 370.041 319.578 370.499 319.774 370.9C319.97 371.301 320.236 371.614 320.572 371.838C320.918 372.062 321.31 372.174 321.748 372.174C322.234 372.174 322.658 372.057 323.022 371.824C323.386 371.581 323.615 371.241 323.708 370.802H324.912C324.819 371.269 324.628 371.679 324.338 372.034C324.049 372.389 323.685 372.669 323.246 372.874C322.808 373.07 322.313 373.168 321.762 373.168ZM326.395 373V363.2H327.571V367.246C327.804 366.817 328.135 366.485 328.565 366.252C328.994 366.009 329.461 365.888 329.965 365.888C330.767 365.888 331.411 366.14 331.897 366.644C332.382 367.139 332.625 367.904 332.625 368.94V373H331.463V369.066C331.463 368.347 331.313 367.806 331.015 367.442C330.725 367.078 330.291 366.896 329.713 366.896C329.106 366.896 328.597 367.115 328.187 367.554C327.776 367.983 327.571 368.599 327.571 369.402V373H326.395ZM336.556 373.168C336.08 373.168 335.646 373.089 335.254 372.93C334.862 372.771 334.55 372.533 334.316 372.216C334.092 371.889 333.98 371.493 333.98 371.026C333.98 370.485 334.12 370.055 334.4 369.738C334.68 369.411 335.049 369.178 335.506 369.038C335.973 368.889 336.472 368.814 337.004 368.814H338.88C338.88 368.329 338.796 367.946 338.628 367.666C338.47 367.386 338.26 367.185 337.998 367.064C337.737 366.943 337.448 366.882 337.13 366.882C336.673 366.882 336.276 366.994 335.94 367.218C335.614 367.433 335.408 367.769 335.324 368.226H334.12C334.167 367.722 334.335 367.297 334.624 366.952C334.914 366.607 335.278 366.345 335.716 366.168C336.164 365.981 336.636 365.888 337.13 365.888C337.83 365.888 338.395 366.019 338.824 366.28C339.254 366.532 339.566 366.873 339.762 367.302C339.958 367.731 340.056 368.207 340.056 368.73V370.858C340.056 371.203 340.098 371.465 340.182 371.642C340.266 371.819 340.481 371.927 340.826 371.964V373C340.518 373 340.238 372.963 339.986 372.888C339.734 372.804 339.52 372.673 339.342 372.496C339.174 372.309 339.053 372.067 338.978 371.768C338.745 372.16 338.423 372.491 338.012 372.762C337.611 373.033 337.126 373.168 336.556 373.168ZM336.738 372.174C337.205 372.174 337.597 372.057 337.914 371.824C338.232 371.581 338.47 371.273 338.628 370.9C338.796 370.527 338.88 370.139 338.88 369.738V369.724H337.102C336.776 369.724 336.468 369.761 336.178 369.836C335.889 369.901 335.656 370.027 335.478 370.214C335.301 370.391 335.212 370.643 335.212 370.97C335.212 371.39 335.362 371.698 335.66 371.894C335.959 372.081 336.318 372.174 336.738 372.174ZM342.084 373V366.056H343.148L343.218 367.302C343.442 366.863 343.764 366.518 344.184 366.266C344.604 366.014 345.08 365.888 345.612 365.888C346.434 365.888 347.087 366.14 347.572 366.644C348.067 367.139 348.314 367.904 348.314 368.94V373H347.138V369.066C347.138 368.347 346.989 367.806 346.69 367.442C346.392 367.078 345.944 366.896 345.346 366.896C344.749 366.896 344.25 367.115 343.848 367.554C343.456 367.983 343.26 368.599 343.26 369.402V373H342.084ZM352.708 376.248C352.157 376.248 351.63 376.178 351.126 376.038C350.622 375.898 350.211 375.66 349.894 375.324C349.586 374.997 349.432 374.559 349.432 374.008C349.432 373.625 349.52 373.308 349.698 373.056C349.875 372.804 350.108 372.613 350.398 372.482C350.174 372.351 349.992 372.188 349.852 371.992C349.712 371.796 349.642 371.572 349.642 371.32C349.642 370.76 349.894 370.307 350.398 369.962C350.211 369.747 350.062 369.509 349.95 369.248C349.847 368.977 349.796 368.679 349.796 368.352C349.796 367.839 349.912 367.4 350.146 367.036C350.388 366.663 350.715 366.378 351.126 366.182C351.546 365.986 352.022 365.888 352.554 365.888C352.946 365.888 353.314 365.944 353.66 366.056H356.026V367.05H354.948C355.069 367.237 355.158 367.442 355.214 367.666C355.279 367.881 355.312 368.109 355.312 368.352C355.312 368.884 355.186 369.332 354.934 369.696C354.691 370.06 354.36 370.34 353.94 370.536C353.529 370.723 353.067 370.816 352.554 370.816C352.292 370.816 352.054 370.788 351.84 370.732C351.625 370.676 351.41 370.597 351.196 370.494C350.953 370.615 350.832 370.802 350.832 371.054C350.832 371.521 351.224 371.754 352.008 371.754H353.17C353.692 371.754 354.154 371.824 354.556 371.964C354.957 372.095 355.27 372.314 355.494 372.622C355.727 372.921 355.844 373.331 355.844 373.854C355.844 374.386 355.694 374.829 355.396 375.184C355.097 375.539 354.71 375.805 354.234 375.982C353.758 376.159 353.249 376.248 352.708 376.248ZM352.68 375.268C353.24 375.268 353.716 375.161 354.108 374.946C354.5 374.741 354.696 374.423 354.696 373.994C354.696 373.191 354.21 372.79 353.24 372.79H352.05C351.592 372.79 351.233 372.888 350.972 373.084C350.71 373.289 350.58 373.593 350.58 373.994C350.58 374.302 350.678 374.549 350.874 374.736C351.07 374.923 351.326 375.058 351.644 375.142C351.961 375.226 352.306 375.268 352.68 375.268ZM352.526 369.836C353.011 369.836 353.408 369.696 353.716 369.416C354.024 369.136 354.178 368.781 354.178 368.352C354.178 367.923 354.024 367.568 353.716 367.288C353.408 367.008 353.011 366.868 352.526 366.868C352.04 366.868 351.648 367.008 351.35 367.288C351.06 367.568 350.916 367.923 350.916 368.352C350.916 368.781 351.056 369.136 351.336 369.416C351.625 369.696 352.022 369.836 352.526 369.836ZM360.213 373.168C359.569 373.168 358.985 373.019 358.463 372.72C357.949 372.421 357.543 372.001 357.245 371.46C356.946 370.909 356.797 370.265 356.797 369.528C356.797 368.8 356.937 368.165 357.217 367.624C357.506 367.073 357.907 366.649 358.421 366.35C358.943 366.042 359.55 365.888 360.241 365.888C360.894 365.888 361.463 366.033 361.949 366.322C362.434 366.611 362.812 367.003 363.083 367.498C363.363 367.983 363.503 368.529 363.503 369.136C363.503 369.267 363.503 369.369 363.503 369.444C363.503 369.519 363.498 369.635 363.489 369.794H357.959C357.987 370.251 358.094 370.662 358.281 371.026C358.477 371.381 358.738 371.661 359.065 371.866C359.401 372.071 359.783 372.174 360.213 372.174C360.698 372.174 361.104 372.062 361.431 371.838C361.757 371.614 361.995 371.311 362.145 370.928H363.307C363.185 371.357 362.985 371.74 362.705 372.076C362.425 372.412 362.075 372.678 361.655 372.874C361.244 373.07 360.763 373.168 360.213 373.168ZM357.973 368.884H362.341C362.313 368.259 362.098 367.769 361.697 367.414C361.295 367.059 360.801 366.882 360.213 366.882C359.653 366.882 359.153 367.055 358.715 367.4C358.285 367.736 358.038 368.231 357.973 368.884ZM365.153 370.284L365.013 363.2H366.287L366.147 370.284H365.153ZM365.685 373.07C365.452 373.07 365.256 372.995 365.097 372.846C364.948 372.687 364.873 372.496 364.873 372.272C364.873 372.048 364.948 371.861 365.097 371.712C365.256 371.553 365.452 371.474 365.685 371.474C365.909 371.474 366.096 371.553 366.245 371.712C366.404 371.861 366.483 372.048 366.483 372.272C366.483 372.496 366.404 372.687 366.245 372.846C366.096 372.995 365.909 373.07 365.685 373.07Z" fill="#242127"/>
<defs>
<filter id="filter0_d_569_9784" x="168" y="149" width="60" height="60" filterUnits="userSpaceOnUse" color-interpolation-filters="sRGB">
<feFlood flood-opacity="0" result="BackgroundImageFix"/>
<feColorMatrix in="SourceAlpha" type="matrix" values="0 0 0 0 0 0 0 0 0 0 0 0 0 0 0 0 0 0 127 0" result="hardAlpha"/>
<feOffset dy="4"/>
<feGaussianBlur stdDeviation="4"/>
<feComposite in2="hardAlpha" operator="out"/>
<feColorMatrix type="matrix" values="0 0 0 0 0.125652 0 0 0 0 0.118456 0 0 0 0 0.145476 0 0 0 0.12 0"/>
<feBlend mode="normal" in2="BackgroundImageFix" result="effect1_dropShadow_569_9784"/>
<feBlend mode="normal" in="SourceGraphic" in2="effect1_dropShadow_569_9784" result="shape"/>
</filter>
<filter id="filter1_d_569_9784" x="49.5234" y="354.133" width="10.666" height="11.5003" filterUnits="userSpaceOnUse" color-interpolation-filters="sRGB">
<feFlood flood-opacity="0" result="BackgroundImageFix"/>
<feColorMatrix in="SourceAlpha" type="matrix" values="0 0 0 0 0 0 0 0 0 0 0 0 0 0 0 0 0 0 127 0" result="hardAlpha"/>
<feOffset dy="0.833333"/>
<feColorMatrix type="matrix" values="0 0 0 0 0 0 0 0 0 0 0 0 0 0 0 0 0 0 0.06 0"/>
<feBlend mode="normal" in2="BackgroundImageFix" result="effect1_dropShadow_569_9784"/>
<feBlend mode="normal" in="SourceGraphic" in2="effect1_dropShadow_569_9784" result="shape"/>
</filter>
<filter id="filter2_d_569_9784" x="83.2363" y="356.267" width="1.52344" height="24.3001" filterUnits="userSpaceOnUse" color-interpolation-filters="sRGB">
<feFlood flood-opacity="0" result="BackgroundImageFix"/>
<feColorMatrix in="SourceAlpha" type="matrix" values="0 0 0 0 0 0 0 0 0 0 0 0 0 0 0 0 0 0 127 0" result="hardAlpha"/>
<feOffset dy="0.833333"/>
<feColorMatrix type="matrix" values="0 0 0 0 0 0 0 0 0 0 0 0 0 0 0 0 0 0 0.06 0"/>
<feBlend mode="normal" in2="BackgroundImageFix" result="effect1_dropShadow_569_9784"/>
<feBlend mode="normal" in="SourceGraphic" in2="effect1_dropShadow_569_9784" result="shape"/>
</filter>
<linearGradient id="paint0_linear_569_9784" x1="49.5234" y1="354.133" x2="49.5234" y2="364.8" gradientUnits="userSpaceOnUse">
<stop stop-color="white"/>
<stop offset="1" stop-color="#F0F0F0"/>
</linearGradient>
<linearGradient id="paint1_linear_569_9784" x1="83.2363" y1="356.267" x2="83.2363" y2="379.733" gradientUnits="userSpaceOnUse">
<stop stop-color="white"/>
<stop offset="1" stop-color="#F0F0F0"/>
</linearGradient>
<clipPath id="clip0_569_9784">
<rect x="28" y="352" width="32" height="32" rx="16" fill="white"/>
</clipPath>
<clipPath id="clip1_569_9784">
<rect x="48" y="352" width="32" height="32" rx="16" fill="white"/>
</clipPath>
<clipPath id="clip2_569_9784">
<rect x="68" y="352" width="32" height="32" rx="16" fill="white"/>
</clipPath>
</defs>
</svg>
