		<svg 
		width="1301" height="502" 
		className="rounded-[28px]"
		viewBox="0 0 1301 502" fill="none" xmlns="http://www.w3.org/2000/svg">
<path fillRule="evenodd" clipRule="evenodd" d="M1059.18 230.256L58.341 -172.043C41.9431 -178.634 23.3065 -170.684 16.7152 -154.286L2.54271 -119.028C-4.04865 -102.63 3.90118 -83.9938 20.2991 -77.4024L1001.68 317.077C1018.08 323.669 1026.03 342.305 1019.44 358.703L1013.85 372.621C1007.25 389.019 1015.2 407.655 1031.6 414.247L1645.42 660.979C1661.82 667.571 1680.46 659.621 1687.05 643.223L1704.2 600.542C1709.15 588.243 1703.18 574.266 1690.89 569.322L1081.67 324.442C1065.28 317.851 1057.33 299.214 1063.92 282.816L1072.5 261.476C1077.44 249.177 1071.48 235.2 1059.18 230.256Z" fill="#1662FA"/>
<path fillRule="evenodd" clipRule="evenodd" d="M1076.21 20.9479L455.276 -228.643C438.878 -235.235 420.242 -227.285 413.651 -210.887L399.478 -175.629C392.887 -159.231 400.836 -140.594 417.234 -134.003L1018.71 107.769C1035.11 114.36 1043.06 132.997 1036.47 149.395L1030.87 163.312C1024.28 179.71 1032.23 198.347 1048.63 204.938L1662.45 451.671C1678.85 458.262 1697.49 450.313 1704.08 433.915L1721.23 391.234C1726.18 378.935 1720.21 364.958 1707.92 360.014L1098.7 115.134C1082.31 108.542 1074.36 89.9057 1080.95 73.5077L1089.53 52.1672C1094.47 39.8688 1088.51 25.8914 1076.21 20.9479Z" fill="#1662FA"/>
</svg>