<svg width="396" height="296" viewBox="0 0 396 296" fill="none" xmlns="http://www.w3.org/2000/svg">
<rect x="0.5" y="0.5" width="395" height="71" rx="19.5" stroke="#D4C5FD"/>
<rect x="4" y="4" width="388" height="64" rx="16" fill="white"/>
<path d="M33.46 43L28.3 29H30.72L34.84 40.66L38.98 29H41.38L36.2 43H33.46ZM45.415 43.24C44.415 43.24 43.5417 43.02 42.795 42.58C42.0483 42.1267 41.4617 41.5133 41.035 40.74C40.6217 39.9533 40.415 39.0533 40.415 38.04C40.415 36.9867 40.6217 36.0733 41.035 35.3C41.4617 34.5267 42.0483 33.9267 42.795 33.5C43.555 33.06 44.435 32.84 45.435 32.84C46.4083 32.84 47.255 33.0533 47.975 33.48C48.695 33.8933 49.2617 34.4667 49.675 35.2C50.0883 35.9333 50.295 36.7667 50.295 37.7C50.295 37.8867 50.2883 38.0533 50.275 38.2C50.275 38.3467 50.2617 38.5067 50.235 38.68H42.695C42.735 39.2 42.8683 39.6667 43.095 40.08C43.3217 40.48 43.6283 40.7933 44.015 41.02C44.415 41.2467 44.8683 41.36 45.375 41.36C45.9217 41.36 46.3817 41.24 46.755 41C47.1417 40.76 47.4417 40.4133 47.655 39.96H50.035C49.8483 40.56 49.5483 41.1067 49.135 41.6C48.735 42.0933 48.2217 42.4933 47.595 42.8C46.9817 43.0933 46.255 43.24 45.415 43.24ZM42.715 37.1H47.975C47.9617 36.3667 47.7017 35.7867 47.195 35.36C46.6883 34.9333 46.0817 34.72 45.375 34.72C44.735 34.72 44.155 34.9133 43.635 35.3C43.1283 35.6867 42.8217 36.2867 42.715 37.1ZM51.7673 43V33.08H53.9673L54.0073 34.7C54.3407 34.1133 54.7873 33.66 55.3473 33.34C55.9207 33.0067 56.5807 32.84 57.3273 32.84V35.22H56.7073C55.8007 35.22 55.1273 35.4467 54.6873 35.9C54.2473 36.3533 54.0273 37.06 54.0273 38.02V43H51.7673ZM59.84 31.5C59.4267 31.5 59.0733 31.3533 58.78 31.06C58.4867 30.7667 58.34 30.4133 58.34 30C58.34 29.5867 58.4867 29.24 58.78 28.96C59.0733 28.6667 59.4267 28.52 59.84 28.52C60.2533 28.52 60.6067 28.6667 60.9 28.96C61.1933 29.24 61.34 29.5867 61.34 30C61.34 30.4133 61.1933 30.7667 60.9 31.06C60.6067 31.3533 60.2533 31.5 59.84 31.5ZM58.7 43V33.08H60.98V43H58.7ZM63.4089 43V34.98H62.1289V33.08H63.4089V32.14C63.4089 31.02 63.6889 30.22 64.2489 29.74C64.8089 29.2467 65.5889 29 66.5889 29H67.4889V30.94H66.9489C66.4822 30.94 66.1489 31.0333 65.9489 31.22C65.7622 31.3933 65.6689 31.7 65.6689 32.14V33.08H67.6689V34.98H65.6689V43H63.4089ZM69.4289 43V33.08H71.6889V43H69.4289ZM70.5689 31.6C70.1556 31.6 69.8022 31.4533 69.5089 31.16C69.2156 30.8667 69.0689 30.5133 69.0689 30.1C69.0689 29.6867 69.2156 29.34 69.5089 29.06C69.8022 28.7667 70.1556 28.62 70.5689 28.62C70.9956 28.62 71.3489 28.7667 71.6289 29.06C71.9222 29.34 72.0689 29.6867 72.0689 30.1C72.0689 30.5133 71.9222 30.8667 71.6289 31.16C71.3489 31.4533 70.9956 31.6 70.5689 31.6ZM74.1473 43V34.98H72.8673V33.08H74.1473V32.14C74.1473 31.02 74.4273 30.22 74.9873 29.74C75.5473 29.2467 76.3273 29 77.3273 29H78.2273V30.94H77.6873C77.2207 30.94 76.8873 31.0333 76.6873 31.22C76.5007 31.3933 76.4073 31.7 76.4073 32.14V33.08H78.4073V34.98H76.4073V43H74.1473ZM80.1673 43V33.08H82.4273V43H80.1673ZM81.3073 31.6C80.894 31.6 80.5407 31.4533 80.2473 31.16C79.954 30.8667 79.8073 30.5133 79.8073 30.1C79.8073 29.6867 79.954 29.34 80.2473 29.06C80.5407 28.7667 80.894 28.62 81.3073 28.62C81.734 28.62 82.0873 28.7667 82.3673 29.06C82.6607 29.34 82.8073 29.6867 82.8073 30.1C82.8073 30.5133 82.6607 30.8667 82.3673 31.16C82.0873 31.4533 81.734 31.6 81.3073 31.6ZM89.1658 43.24C88.1658 43.24 87.2924 43.02 86.5458 42.58C85.7991 42.1267 85.2124 41.5133 84.7858 40.74C84.3724 39.9533 84.1658 39.0533 84.1658 38.04C84.1658 36.9867 84.3724 36.0733 84.7858 35.3C85.2124 34.5267 85.7991 33.9267 86.5458 33.5C87.3058 33.06 88.1858 32.84 89.1858 32.84C90.1591 32.84 91.0058 33.0533 91.7258 33.48C92.4458 33.8933 93.0124 34.4667 93.4258 35.2C93.8391 35.9333 94.0458 36.7667 94.0458 37.7C94.0458 37.8867 94.0391 38.0533 94.0258 38.2C94.0258 38.3467 94.0124 38.5067 93.9858 38.68H86.4458C86.4858 39.2 86.6191 39.6667 86.8458 40.08C87.0724 40.48 87.3791 40.7933 87.7658 41.02C88.1658 41.2467 88.6191 41.36 89.1258 41.36C89.6724 41.36 90.1324 41.24 90.5058 41C90.8924 40.76 91.1924 40.4133 91.4058 39.96H93.7858C93.5991 40.56 93.2991 41.1067 92.8858 41.6C92.4858 42.0933 91.9724 42.4933 91.3458 42.8C90.7324 43.0933 90.0058 43.24 89.1658 43.24ZM86.4658 37.1H91.7258C91.7124 36.3667 91.4524 35.7867 90.9458 35.36C90.4391 34.9333 89.8324 34.72 89.1258 34.72C88.4858 34.72 87.9058 34.9133 87.3858 35.3C86.8791 35.6867 86.5724 36.2867 86.4658 37.1ZM99.8781 43.24C98.8915 43.24 98.0448 43.0067 97.3381 42.54C96.6448 42.06 96.1048 41.4267 95.7181 40.64C95.3448 39.8533 95.1581 38.9733 95.1581 38C95.1581 37.04 95.3448 36.1733 95.7181 35.4C96.1048 34.6133 96.6515 33.9933 97.3581 33.54C98.0648 33.0733 98.9048 32.84 99.8781 32.84C100.571 32.84 101.218 32.9867 101.818 33.28C102.418 33.56 102.905 33.9733 103.278 34.52V29H105.558V43H103.338L103.278 41.5C102.958 42.0333 102.498 42.46 101.898 42.78C101.298 43.0867 100.625 43.24 99.8781 43.24ZM100.378 41.26C100.978 41.26 101.491 41.12 101.918 40.84C102.345 40.56 102.678 40.18 102.918 39.7C103.158 39.2067 103.278 38.6533 103.278 38.04C103.278 37.3333 103.138 36.74 102.858 36.26C102.591 35.78 102.231 35.42 101.778 35.18C101.338 34.94 100.865 34.82 100.358 34.82C99.7981 34.82 99.2981 34.96 98.8581 35.24C98.4315 35.5067 98.0915 35.88 97.8381 36.36C97.5981 36.8267 97.4781 37.38 97.4781 38.02C97.4781 38.6467 97.6048 39.2067 97.8581 39.7C98.1115 40.18 98.4515 40.56 98.8781 40.84C99.3181 41.12 99.8181 41.26 100.378 41.26Z" fill="#242127"/>
<path d="M364.233 32.8525C363.761 32.36 363.274 31.8525 363.09 31.4062C362.92 30.9975 362.91 30.32 362.9 29.6637C362.881 28.4437 362.861 27.0612 361.9 26.1C360.939 25.1387 359.556 25.1187 358.336 25.1C357.68 25.09 357.003 25.08 356.594 24.91C356.149 24.7262 355.64 24.2387 355.147 23.7675C354.285 22.9387 353.305 22 352 22C350.695 22 349.716 22.9387 348.852 23.7675C348.36 24.2387 347.852 24.7262 347.406 24.91C347 25.08 346.32 25.09 345.664 25.1C344.444 25.1187 343.061 25.1387 342.1 26.1C341.139 27.0612 341.125 28.4437 341.1 29.6637C341.09 30.32 341.08 30.9975 340.91 31.4062C340.726 31.8512 340.239 32.36 339.767 32.8525C338.939 33.715 338 34.695 338 36C338 37.305 338.939 38.2837 339.767 39.1475C340.239 39.64 340.726 40.1475 340.91 40.5938C341.08 41.0025 341.09 41.68 341.1 42.3363C341.119 43.5562 341.139 44.9387 342.1 45.9C343.061 46.8612 344.444 46.8813 345.664 46.9C346.32 46.91 346.998 46.92 347.406 47.09C347.851 47.2738 348.36 47.7612 348.852 48.2325C349.715 49.0613 350.695 50 352 50C353.305 50 354.284 49.0613 355.147 48.2325C355.64 47.7612 356.147 47.2738 356.594 47.09C357.003 46.92 357.68 46.91 358.336 46.9C359.556 46.8813 360.939 46.8612 361.9 45.9C362.861 44.9387 362.881 43.5562 362.9 42.3363C362.91 41.68 362.92 41.0025 363.09 40.5938C363.274 40.1488 363.761 39.64 364.233 39.1475C365.061 38.285 366 37.305 366 36C366 34.695 365.061 33.7162 364.233 32.8525ZM357.708 33.7075L350.708 40.7075C350.615 40.8005 350.504 40.8742 350.383 40.9246C350.262 40.9749 350.131 41.0008 350 41.0008C349.869 41.0008 349.738 40.9749 349.617 40.9246C349.496 40.8742 349.385 40.8005 349.292 40.7075L346.292 37.7075C346.105 37.5199 345.999 37.2654 345.999 37C345.999 36.7346 346.105 36.4801 346.292 36.2925C346.48 36.1049 346.735 35.9994 347 35.9994C347.265 35.9994 347.52 36.1049 347.708 36.2925L350 38.5863L356.292 32.2925C356.385 32.1996 356.496 32.1259 356.617 32.0756C356.738 32.0253 356.869 31.9994 357 31.9994C357.131 31.9994 357.262 32.0253 357.383 32.0756C357.504 32.1259 357.615 32.1996 357.708 32.2925C357.8 32.3854 357.874 32.4957 357.924 32.6171C357.975 32.7385 358.001 32.8686 358.001 33C358.001 33.1314 357.975 33.2615 357.924 33.3829C357.874 33.5043 357.8 33.6146 357.708 33.7075Z" fill="#9370F2"/>
<rect x="0.5" y="88.5" width="395" height="207" rx="19.5" stroke="#D4C5FD"/>
<rect x="4" y="92" width="388" height="200" rx="16" fill="white"/>
<path d="M29.34 139V125H38.22V126.92H31.62V130.66H37.32V132.56H31.62V137.08H38.22V139H29.34ZM40.1295 139V129.08H42.3295L42.3695 130.44C42.7029 129.92 43.1629 129.527 43.7495 129.26C44.3362 128.98 44.9495 128.84 45.5895 128.84C46.7495 128.84 47.6895 129.207 48.4095 129.94C49.1295 130.673 49.4895 131.753 49.4895 133.18V139H47.2495V133.46C47.2495 132.62 47.0495 131.96 46.6495 131.48C46.2495 131 45.6629 130.76 44.8895 130.76C44.1162 130.76 43.5029 131.02 43.0495 131.54C42.6095 132.047 42.3895 132.74 42.3895 133.62V139H40.1295ZM55.1577 139C54.1443 139 53.371 138.753 52.8377 138.26C52.3043 137.767 52.0377 136.98 52.0377 135.9V130.98H50.6177V129.08H52.0377V126.68H54.3177V129.08H56.7377V130.98H54.3177V135.92C54.3177 136.373 54.4243 136.687 54.6377 136.86C54.851 137.02 55.171 137.1 55.5977 137.1H56.7377V139H55.1577ZM62.7094 139.24C61.7094 139.24 60.836 139.02 60.0894 138.58C59.3427 138.127 58.756 137.513 58.3294 136.74C57.916 135.953 57.7094 135.053 57.7094 134.04C57.7094 132.987 57.916 132.073 58.3294 131.3C58.756 130.527 59.3427 129.927 60.0894 129.5C60.8494 129.06 61.7294 128.84 62.7294 128.84C63.7027 128.84 64.5494 129.053 65.2694 129.48C65.9894 129.893 66.556 130.467 66.9694 131.2C67.3827 131.933 67.5894 132.767 67.5894 133.7C67.5894 133.887 67.5827 134.053 67.5694 134.2C67.5694 134.347 67.556 134.507 67.5294 134.68H59.9894C60.0294 135.2 60.1627 135.667 60.3894 136.08C60.616 136.48 60.9227 136.793 61.3094 137.02C61.7094 137.247 62.1627 137.36 62.6694 137.36C63.216 137.36 63.676 137.24 64.0494 137C64.436 136.76 64.736 136.413 64.9494 135.96H67.3294C67.1427 136.56 66.8427 137.107 66.4294 137.6C66.0294 138.093 65.516 138.493 64.8894 138.8C64.276 139.093 63.5494 139.24 62.7094 139.24ZM60.0094 133.1H65.2694C65.256 132.367 64.996 131.787 64.4894 131.36C63.9827 130.933 63.376 130.72 62.6694 130.72C62.0294 130.72 61.4494 130.913 60.9294 131.3C60.4227 131.687 60.116 132.287 60.0094 133.1ZM69.0217 139V129.08H71.2217L71.2617 130.7C71.5951 130.113 72.0417 129.66 72.6017 129.34C73.1751 129.007 73.8351 128.84 74.5817 128.84V131.22H73.9617C73.0551 131.22 72.3817 131.447 71.9417 131.9C71.5017 132.353 71.2817 133.06 71.2817 134.02V139H69.0217ZM81.4181 143.4L83.5981 138.56L79.4981 129.08H82.0181L84.8181 136.16L87.7181 129.08H90.0981L83.7981 143.4H81.4181ZM95.0567 139.24C94.0834 139.24 93.2101 139.027 92.4367 138.6C91.6634 138.173 91.0501 137.573 90.5967 136.8C90.1567 136.013 89.9367 135.093 89.9367 134.04C89.9367 132.96 90.1701 132.033 90.6367 131.26C91.1034 130.487 91.7301 129.893 92.5167 129.48C93.3034 129.053 94.1767 128.84 95.1367 128.84C96.1101 128.84 96.9834 129.053 97.7567 129.48C98.5434 129.893 99.1634 130.487 99.6167 131.26C100.083 132.033 100.317 132.96 100.317 134.04C100.317 135.04 100.09 135.933 99.6367 136.72C99.1967 137.507 98.5767 138.127 97.7767 138.58C96.9901 139.02 96.0834 139.24 95.0567 139.24ZM95.0767 137.28C95.6501 137.28 96.1501 137.14 96.5767 136.86C97.0167 136.567 97.3634 136.173 97.6167 135.68C97.8701 135.187 97.9967 134.627 97.9967 134C97.9967 133.347 97.8701 132.78 97.6167 132.3C97.3634 131.82 97.0167 131.453 96.5767 131.2C96.1501 130.933 95.6567 130.8 95.0967 130.8C94.5101 130.8 93.9967 130.94 93.5567 131.22C93.1301 131.5 92.8034 131.887 92.5767 132.38C92.3501 132.86 92.2367 133.413 92.2367 134.04C92.2367 134.72 92.3634 135.307 92.6167 135.8C92.8834 136.28 93.2301 136.647 93.6567 136.9C94.0967 137.153 94.5701 137.28 95.0767 137.28ZM105.674 139.24C104.847 139.24 104.134 139.067 103.534 138.72C102.947 138.373 102.494 137.88 102.174 137.24C101.854 136.587 101.694 135.82 101.694 134.94V129.08H103.954V134.62C103.954 135.447 104.147 136.107 104.534 136.6C104.934 137.08 105.521 137.32 106.294 137.32C107.081 137.32 107.694 137.067 108.134 136.56C108.574 136.053 108.794 135.353 108.794 134.46V129.08H111.054V139H108.854L108.814 137.64C108.481 138.147 108.034 138.54 107.474 138.82C106.914 139.1 106.314 139.24 105.674 139.24ZM112.983 139V129.08H115.183L115.223 130.7C115.556 130.113 116.003 129.66 116.563 129.34C117.136 129.007 117.796 128.84 118.543 128.84V131.22H117.923C117.016 131.22 116.343 131.447 115.903 131.9C115.463 132.353 115.243 133.06 115.243 134.02V139H112.983ZM124.399 143.4V129.08H126.599L126.659 130.54C127.019 130.033 127.492 129.627 128.079 129.32C128.666 129 129.339 128.84 130.099 128.84C131.072 128.84 131.906 129.073 132.599 129.54C133.306 129.993 133.846 130.613 134.219 131.4C134.606 132.187 134.799 133.06 134.799 134.02C134.799 134.98 134.606 135.86 134.219 136.66C133.832 137.447 133.286 138.073 132.579 138.54C131.886 139.007 131.052 139.24 130.079 139.24C129.252 139.24 128.546 139.073 127.959 138.74C127.386 138.393 126.952 137.993 126.659 137.54V143.4H124.399ZM129.579 137.26C130.152 137.26 130.659 137.12 131.099 136.84C131.539 136.547 131.879 136.153 132.119 135.66C132.372 135.167 132.499 134.62 132.499 134.02C132.499 133.367 132.366 132.8 132.099 132.32C131.846 131.84 131.499 131.473 131.059 131.22C130.619 130.953 130.126 130.82 129.579 130.82C129.019 130.82 128.519 130.96 128.079 131.24C127.639 131.507 127.292 131.887 127.039 132.38C126.786 132.86 126.659 133.413 126.659 134.04C126.659 134.64 126.779 135.187 127.019 135.68C127.272 136.16 127.612 136.547 128.039 136.84C128.479 137.12 128.992 137.26 129.579 137.26ZM139.487 139.24C138.874 139.24 138.3 139.127 137.767 138.9C137.247 138.66 136.827 138.313 136.507 137.86C136.2 137.407 136.047 136.867 136.047 136.24C136.047 135.493 136.234 134.887 136.607 134.42C136.98 133.953 137.487 133.613 138.127 133.4C138.767 133.173 139.474 133.06 140.247 133.06H142.727C142.727 132.527 142.64 132.093 142.467 131.76C142.294 131.413 142.054 131.16 141.747 131C141.44 130.827 141.08 130.74 140.667 130.74C140.134 130.74 139.667 130.86 139.267 131.1C138.867 131.34 138.62 131.733 138.527 132.28H136.247C136.314 131.56 136.554 130.947 136.967 130.44C137.394 129.92 137.934 129.527 138.587 129.26C139.24 128.98 139.94 128.84 140.687 128.84C141.647 128.84 142.44 129.02 143.067 129.38C143.707 129.727 144.187 130.213 144.507 130.84C144.84 131.467 145.007 132.193 145.007 133.02V136.04C145.02 136.4 145.107 136.66 145.267 136.82C145.44 136.98 145.707 137.067 146.067 137.08V139C145.507 139 145.027 138.94 144.627 138.82C144.227 138.7 143.894 138.52 143.627 138.28C143.374 138.04 143.167 137.727 143.007 137.34C142.687 137.873 142.214 138.327 141.587 138.7C140.974 139.06 140.274 139.24 139.487 139.24ZM140.067 137.4C140.587 137.4 141.04 137.28 141.427 137.04C141.827 136.787 142.14 136.453 142.367 136.04C142.607 135.613 142.727 135.147 142.727 134.64V134.58H140.407C140.06 134.58 139.727 134.627 139.407 134.72C139.087 134.813 138.834 134.967 138.647 135.18C138.46 135.38 138.367 135.66 138.367 136.02C138.367 136.5 138.534 136.853 138.867 137.08C139.2 137.293 139.6 137.4 140.067 137.4ZM151.241 139.24C150.481 139.24 149.774 139.107 149.121 138.84C148.481 138.56 147.954 138.167 147.541 137.66C147.141 137.153 146.914 136.56 146.861 135.88H149.141C149.221 136.347 149.447 136.727 149.821 137.02C150.207 137.3 150.674 137.44 151.221 137.44C151.714 137.44 152.121 137.333 152.441 137.12C152.774 136.907 152.941 136.613 152.941 136.24C152.941 135.92 152.827 135.673 152.601 135.5C152.374 135.313 152.094 135.173 151.761 135.08C151.427 134.973 151.081 134.88 150.721 134.8C150.094 134.653 149.507 134.473 148.961 134.26C148.427 134.047 147.994 133.747 147.661 133.36C147.327 132.973 147.161 132.467 147.161 131.84C147.161 131.213 147.334 130.68 147.681 130.24C148.027 129.787 148.487 129.44 149.061 129.2C149.647 128.96 150.301 128.84 151.021 128.84C152.114 128.84 153.021 129.113 153.741 129.66C154.474 130.207 154.881 131.007 154.961 132.06H152.801C152.747 131.607 152.554 131.26 152.221 131.02C151.901 130.78 151.481 130.66 150.961 130.66C150.507 130.66 150.127 130.747 149.821 130.92C149.527 131.093 149.381 131.373 149.381 131.76C149.381 132.027 149.487 132.247 149.701 132.42C149.927 132.593 150.207 132.74 150.541 132.86C150.887 132.967 151.227 133.06 151.561 133.14C152.241 133.3 152.847 133.487 153.381 133.7C153.914 133.913 154.334 134.213 154.641 134.6C154.961 134.987 155.127 135.513 155.141 136.18C155.141 136.82 154.967 137.367 154.621 137.82C154.274 138.273 153.807 138.627 153.221 138.88C152.634 139.12 151.974 139.24 151.241 139.24ZM160.709 139.24C159.949 139.24 159.242 139.107 158.589 138.84C157.949 138.56 157.422 138.167 157.009 137.66C156.609 137.153 156.382 136.56 156.329 135.88H158.609C158.689 136.347 158.915 136.727 159.289 137.02C159.675 137.3 160.142 137.44 160.689 137.44C161.182 137.44 161.589 137.333 161.909 137.12C162.242 136.907 162.409 136.613 162.409 136.24C162.409 135.92 162.295 135.673 162.069 135.5C161.842 135.313 161.562 135.173 161.229 135.08C160.895 134.973 160.549 134.88 160.189 134.8C159.562 134.653 158.975 134.473 158.429 134.26C157.895 134.047 157.462 133.747 157.129 133.36C156.795 132.973 156.629 132.467 156.629 131.84C156.629 131.213 156.802 130.68 157.149 130.24C157.495 129.787 157.955 129.44 158.529 129.2C159.115 128.96 159.769 128.84 160.489 128.84C161.582 128.84 162.489 129.113 163.209 129.66C163.942 130.207 164.349 131.007 164.429 132.06H162.269C162.215 131.607 162.022 131.26 161.689 131.02C161.369 130.78 160.949 130.66 160.429 130.66C159.975 130.66 159.595 130.747 159.289 130.92C158.995 131.093 158.849 131.373 158.849 131.76C158.849 132.027 158.955 132.247 159.169 132.42C159.395 132.593 159.675 132.74 160.009 132.86C160.355 132.967 160.695 133.06 161.029 133.14C161.709 133.3 162.315 133.487 162.849 133.7C163.382 133.913 163.802 134.213 164.109 134.6C164.429 134.987 164.595 135.513 164.609 136.18C164.609 136.82 164.435 137.367 164.089 137.82C163.742 138.273 163.275 138.627 162.689 138.88C162.102 139.12 161.442 139.24 160.709 139.24ZM170.817 139.24C169.843 139.24 168.983 139.02 168.237 138.58C167.49 138.14 166.903 137.533 166.477 136.76C166.05 135.973 165.837 135.067 165.837 134.04C165.837 133.027 166.043 132.133 166.457 131.36C166.87 130.573 167.45 129.96 168.197 129.52C168.943 129.067 169.817 128.84 170.817 128.84C172.017 128.84 173.023 129.147 173.837 129.76C174.663 130.36 175.21 131.22 175.477 132.34H173.077C172.957 131.873 172.697 131.493 172.297 131.2C171.897 130.907 171.397 130.76 170.797 130.76C170.197 130.76 169.703 130.913 169.317 131.22C168.93 131.513 168.637 131.913 168.437 132.42C168.25 132.913 168.157 133.453 168.157 134.04C168.157 134.653 168.257 135.207 168.457 135.7C168.657 136.193 168.95 136.587 169.337 136.88C169.737 137.173 170.223 137.32 170.797 137.32C171.383 137.32 171.87 137.187 172.257 136.92C172.657 136.64 172.93 136.247 173.077 135.74H175.477C175.317 136.46 175.017 137.087 174.577 137.62C174.15 138.14 173.617 138.54 172.977 138.82C172.337 139.1 171.617 139.24 170.817 139.24ZM181.811 139.24C180.838 139.24 179.965 139.027 179.191 138.6C178.418 138.173 177.805 137.573 177.351 136.8C176.911 136.013 176.691 135.093 176.691 134.04C176.691 132.96 176.925 132.033 177.391 131.26C177.858 130.487 178.485 129.893 179.271 129.48C180.058 129.053 180.931 128.84 181.891 128.84C182.865 128.84 183.738 129.053 184.511 129.48C185.298 129.893 185.918 130.487 186.371 131.26C186.838 132.033 187.071 132.96 187.071 134.04C187.071 135.04 186.845 135.933 186.391 136.72C185.951 137.507 185.331 138.127 184.531 138.58C183.745 139.02 182.838 139.24 181.811 139.24ZM181.831 137.28C182.405 137.28 182.905 137.14 183.331 136.86C183.771 136.567 184.118 136.173 184.371 135.68C184.625 135.187 184.751 134.627 184.751 134C184.751 133.347 184.625 132.78 184.371 132.3C184.118 131.82 183.771 131.453 183.331 131.2C182.905 130.933 182.411 130.8 181.851 130.8C181.265 130.8 180.751 130.94 180.311 131.22C179.885 131.5 179.558 131.887 179.331 132.38C179.105 132.86 178.991 133.413 178.991 134.04C178.991 134.72 179.118 135.307 179.371 135.8C179.638 136.28 179.985 136.647 180.411 136.9C180.851 137.153 181.325 137.28 181.831 137.28ZM192.989 139.24C192.002 139.24 191.155 139.007 190.449 138.54C189.755 138.06 189.215 137.427 188.829 136.64C188.455 135.853 188.269 134.973 188.269 134C188.269 133.04 188.455 132.173 188.829 131.4C189.215 130.613 189.762 129.993 190.469 129.54C191.175 129.073 192.015 128.84 192.989 128.84C193.682 128.84 194.329 128.987 194.929 129.28C195.529 129.56 196.015 129.973 196.389 130.52V125H198.669V139H196.449L196.389 137.5C196.069 138.033 195.609 138.46 195.009 138.78C194.409 139.087 193.735 139.24 192.989 139.24ZM193.489 137.26C194.089 137.26 194.602 137.12 195.029 136.84C195.455 136.56 195.789 136.18 196.029 135.7C196.269 135.207 196.389 134.653 196.389 134.04C196.389 133.333 196.249 132.74 195.969 132.26C195.702 131.78 195.342 131.42 194.889 131.18C194.449 130.94 193.975 130.82 193.469 130.82C192.909 130.82 192.409 130.96 191.969 131.24C191.542 131.507 191.202 131.88 190.949 132.36C190.709 132.827 190.589 133.38 190.589 134.02C190.589 134.647 190.715 135.207 190.969 135.7C191.222 136.18 191.562 136.56 191.989 136.84C192.429 137.12 192.929 137.26 193.489 137.26ZM205.237 139.24C204.237 139.24 203.363 139.02 202.617 138.58C201.87 138.127 201.283 137.513 200.857 136.74C200.443 135.953 200.237 135.053 200.237 134.04C200.237 132.987 200.443 132.073 200.857 131.3C201.283 130.527 201.87 129.927 202.617 129.5C203.377 129.06 204.257 128.84 205.257 128.84C206.23 128.84 207.077 129.053 207.797 129.48C208.517 129.893 209.083 130.467 209.497 131.2C209.91 131.933 210.117 132.767 210.117 133.7C210.117 133.887 210.11 134.053 210.097 134.2C210.097 134.347 210.083 134.507 210.057 134.68H202.517C202.557 135.2 202.69 135.667 202.917 136.08C203.143 136.48 203.45 136.793 203.837 137.02C204.237 137.247 204.69 137.36 205.197 137.36C205.743 137.36 206.203 137.24 206.577 137C206.963 136.76 207.263 136.413 207.477 135.96H209.857C209.67 136.56 209.37 137.107 208.957 137.6C208.557 138.093 208.043 138.493 207.417 138.8C206.803 139.093 206.077 139.24 205.237 139.24ZM202.537 133.1H207.797C207.783 132.367 207.523 131.787 207.017 131.36C206.51 130.933 205.903 130.72 205.197 130.72C204.557 130.72 203.977 130.913 203.457 131.3C202.95 131.687 202.643 132.287 202.537 133.1Z" fill="#13342F"/>
<rect opacity="0.36" x="28" y="156" width="310" height="12" rx="4" fill="#D4C5FD"/>
<rect opacity="0.34" x="28" y="176" width="158" height="8" rx="4" fill="#D4C5FD"/>
<rect x="28" y="216" width="44" height="44" rx="12" fill="#D4C5FD" fill-opacity="0.16"/>
<path d="M49.882 242.724C49.1167 242.724 48.4447 242.612 47.866 242.388C47.2873 242.155 46.8393 241.819 46.522 241.38C46.2047 240.941 46.046 240.409 46.046 239.784C46.046 239.065 46.2607 238.468 46.69 237.992C47.1193 237.507 47.712 237.185 48.468 237.026L48.496 237.306C47.88 237.166 47.3947 236.909 47.04 236.536C46.6947 236.153 46.522 235.663 46.522 235.066C46.522 234.534 46.6573 234.063 46.928 233.652C47.1987 233.241 47.586 232.919 48.09 232.686C48.6033 232.453 49.2007 232.336 49.882 232.336C50.5633 232.336 51.156 232.453 51.66 232.686C52.164 232.919 52.5513 233.241 52.822 233.652C53.0927 234.063 53.228 234.534 53.228 235.066C53.228 235.663 53.0553 236.149 52.71 236.522C52.3647 236.895 51.8793 237.157 51.254 237.306L51.282 237.026C52.038 237.185 52.6307 237.507 53.06 237.992C53.4987 238.468 53.718 239.065 53.718 239.784C53.718 240.409 53.5547 240.941 53.228 241.38C52.9107 241.819 52.4627 242.155 51.884 242.388C51.3053 242.612 50.638 242.724 49.882 242.724ZM49.882 241.338C50.582 241.338 51.1327 241.193 51.534 240.904C51.9353 240.615 52.136 240.19 52.136 239.63C52.136 239.07 51.9447 238.631 51.562 238.314C51.1793 237.997 50.6193 237.838 49.882 237.838C49.1353 237.838 48.5707 237.997 48.188 238.314C47.8053 238.631 47.614 239.07 47.614 239.63C47.614 240.19 47.8147 240.615 48.216 240.904C48.6173 241.193 49.1727 241.338 49.882 241.338ZM49.882 236.592C50.4607 236.592 50.904 236.471 51.212 236.228C51.52 235.985 51.674 235.621 51.674 235.136C51.674 234.697 51.52 234.352 51.212 234.1C50.904 233.839 50.4607 233.708 49.882 233.708C49.294 233.708 48.846 233.839 48.538 234.1C48.23 234.352 48.076 234.697 48.076 235.136C48.076 235.621 48.23 235.985 48.538 236.228C48.8553 236.471 49.3033 236.592 49.882 236.592Z" fill="#060018"/>
<rect x="80" y="216" width="44" height="44" rx="12" fill="#D4C5FD" fill-opacity="0.16"/>
<path d="M100.188 242.5C100.188 240.988 100.487 239.495 101.084 238.02C101.681 236.545 102.517 235.187 103.59 233.946H98.046V232.56H105.186V233.848C103.991 235.211 103.114 236.573 102.554 237.936C102.003 239.299 101.728 240.82 101.728 242.5H100.188Z" fill="#060018"/>
<rect x="132" y="216" width="44" height="44" rx="12" fill="#D4C5FD" fill-opacity="0.16"/>
<path d="M152.188 242.5C152.188 240.988 152.487 239.495 153.084 238.02C153.681 236.545 154.517 235.187 155.59 233.946H150.046V232.56H157.186V233.848C155.991 235.211 155.114 236.573 154.554 237.936C154.003 239.299 153.728 240.82 153.728 242.5H152.188Z" fill="#060018"/>
<line x1="192" y1="237.5" x2="204" y2="237.5" stroke="#DBDFDF"/>
<rect x="220" y="216" width="44" height="44" rx="12" fill="#D4C5FD" fill-opacity="0.16"/>
<path d="M241.746 242.724C240.934 242.724 240.225 242.514 239.618 242.094C239.011 241.674 238.54 241.077 238.204 240.302C237.877 239.518 237.714 238.599 237.714 237.544C237.714 236.489 237.877 235.57 238.204 234.786C238.54 234.002 239.011 233.4 239.618 232.98C240.225 232.551 240.934 232.336 241.746 232.336C242.577 232.336 243.295 232.546 243.902 232.966C244.509 233.386 244.975 233.988 245.302 234.772C245.629 235.556 245.792 236.48 245.792 237.544C245.792 238.599 245.629 239.518 245.302 240.302C244.975 241.077 244.509 241.674 243.902 242.094C243.295 242.514 242.577 242.724 241.746 242.724ZM241.746 241.338C242.278 241.338 242.726 241.193 243.09 240.904C243.463 240.615 243.743 240.185 243.93 239.616C244.126 239.047 244.224 238.356 244.224 237.544C244.224 236.723 244.126 236.027 243.93 235.458C243.743 234.889 243.463 234.459 243.09 234.17C242.726 233.871 242.278 233.722 241.746 233.722C241.223 233.722 240.78 233.871 240.416 234.17C240.052 234.459 239.772 234.889 239.576 235.458C239.38 236.027 239.282 236.723 239.282 237.544C239.282 238.356 239.38 239.047 239.576 239.616C239.772 240.185 240.052 240.615 240.416 240.904C240.78 241.193 241.223 241.338 241.746 241.338Z" fill="#060018"/>
<rect x="272" y="216" width="44" height="44" rx="12" fill="#D4C5FD" fill-opacity="0.16"/>
<path d="M293.658 242.724C292.818 242.724 292.123 242.523 291.572 242.122C291.031 241.721 290.662 241.17 290.466 240.47L291.992 240.372C292.104 240.689 292.295 240.932 292.566 241.1C292.846 241.268 293.21 241.352 293.658 241.352C294.451 241.352 295.049 241.039 295.45 240.414C295.851 239.789 296.057 238.795 296.066 237.432L296.346 237.502C296.103 238.09 295.749 238.538 295.282 238.846C294.815 239.154 294.265 239.308 293.63 239.308C292.986 239.308 292.412 239.168 291.908 238.888C291.404 238.599 291.012 238.197 290.732 237.684C290.461 237.161 290.326 236.564 290.326 235.892C290.326 235.173 290.475 234.548 290.774 234.016C291.073 233.475 291.488 233.059 292.02 232.77C292.561 232.481 293.177 232.336 293.868 232.336C295.119 232.336 296.052 232.747 296.668 233.568C297.284 234.38 297.592 235.533 297.592 237.026C297.592 238.818 297.279 240.218 296.654 241.226C296.038 242.225 295.039 242.724 293.658 242.724ZM293.84 238.006C294.26 238.006 294.629 237.922 294.946 237.754C295.263 237.586 295.511 237.343 295.688 237.026C295.865 236.709 295.954 236.331 295.954 235.892C295.954 235.463 295.87 235.085 295.702 234.758C295.543 234.422 295.305 234.161 294.988 233.974C294.68 233.778 294.316 233.68 293.896 233.68C293.485 233.68 293.126 233.773 292.818 233.96C292.51 234.147 292.272 234.408 292.104 234.744C291.945 235.071 291.866 235.449 291.866 235.878C291.866 236.307 291.945 236.685 292.104 237.012C292.272 237.329 292.505 237.577 292.804 237.754C293.103 237.922 293.448 238.006 293.84 238.006Z" fill="#060018"/>
<rect x="324" y="216" width="44" height="44" rx="12" fill="#D4C5FD" fill-opacity="0.16"/>
<path d="M346.698 240.428H341.686V239.14L346.502 232.56H348.21V239.056H349.414V240.428H348.21V242.5H346.698V240.428ZM346.698 239.056V234.66L343.408 239.056H346.698Z" fill="#060018"/>
</svg>
